<svg id="svg" version="1.1" xmlns="http://www.w3.org/2000/svg" xmlns:xlink="http://www.w3.org/1999/xlink" width="400" height="538.9578163771712" viewBox="0, 0, 400,538.9578163771712"><g id="svgg"><path id="path0" d="M80.742 49.571 C 80.160 49.756,78.058 50.037,76.071 50.194 C 72.493 50.478,72.442 50.497,70.623 52.240 C 69.612 53.208,68.643 54.000,68.468 54.000 C 66.499 54.000,64.309 61.527,63.579 70.800 C 63.397 73.110,63.125 75.600,62.974 76.333 C 62.816 77.102,62.890 78.032,63.150 78.533 C 63.445 79.102,63.655 83.800,63.759 92.200 C 63.847 99.240,64.046 105.967,64.201 107.148 C 64.382 108.521,64.319 109.603,64.028 110.148 C 63.537 111.067,63.675 129.901,64.203 133.948 C 64.386 135.351,64.320 136.403,64.011 136.980 C 63.690 137.578,63.615 139.019,63.779 141.432 C 64.015 144.922,64.122 149.305,64.006 150.700 C 63.974 151.085,64.235 152.660,64.586 154.200 C 64.938 155.740,65.394 157.900,65.600 159.000 C 66.877 165.801,67.417 167.200,68.763 167.200 C 69.173 167.200,70.474 167.480,71.654 167.822 C 77.925 169.641,80.309 170.135,82.400 170.045 C 92.578 169.608,101.427 169.586,102.194 169.997 C 102.792 170.317,103.992 170.385,105.842 170.205 C 107.359 170.058,120.030 169.780,134.000 169.588 C 147.970 169.396,161.380 169.127,163.800 168.990 C 166.718 168.825,168.677 168.898,169.616 169.207 C 170.837 169.608,171.222 169.563,172.416 168.874 C 173.177 168.435,174.579 167.951,175.531 167.798 C 177.880 167.420,181.684 163.781,182.452 161.177 C 183.122 158.904,183.218 59.353,182.552 57.400 C 182.327 56.740,181.454 55.732,180.611 55.160 C 179.769 54.588,178.612 53.436,178.040 52.600 C 176.179 49.880,171.295 49.184,157.774 49.711 C 152.092 49.932,147.986 49.890,145.000 49.581 C 142.394 49.311,138.235 49.226,134.800 49.374 C 131.610 49.512,127.380 49.577,125.400 49.520 C 121.562 49.409,110.256 49.470,103.000 49.641 C 100.580 49.698,94.820 49.629,90.200 49.489 C 85.580 49.348,81.324 49.385,80.742 49.571 M220.400 49.576 C 220.070 49.802,218.850 49.991,217.689 49.994 C 215.232 50.001,211.018 51.884,210.614 53.155 C 210.336 54.033,208.772 55.192,207.000 55.835 C 204.450 56.760,204.394 57.907,204.608 104.600 C 204.712 127.260,204.753 147.420,204.698 149.400 C 204.430 159.205,204.874 162.004,206.856 163.029 C 207.485 163.354,208.000 163.790,208.000 163.996 C 208.000 164.872,210.482 167.127,211.703 167.360 C 212.416 167.496,213.798 168.242,214.774 169.018 C 215.750 169.794,216.802 170.331,217.111 170.213 C 218.662 169.618,219.664 169.555,220.222 170.018 C 220.686 170.403,220.946 170.414,221.297 170.063 C 221.865 169.495,253.021 169.400,254.500 169.962 C 255.068 170.178,256.234 170.178,257.386 169.963 C 258.450 169.764,259.518 169.736,259.760 169.901 C 260.418 170.348,266.210 170.165,269.400 169.597 C 270.940 169.322,273.640 169.126,275.400 169.161 C 277.160 169.195,286.752 169.312,296.716 169.420 L 314.832 169.616 316.116 168.658 C 316.822 168.131,318.064 167.392,318.876 167.016 C 319.933 166.526,320.424 166.000,320.608 165.162 C 320.750 164.518,321.081 163.769,321.345 163.496 C 322.288 162.521,323.600 159.939,323.600 159.057 C 323.600 158.564,323.797 157.963,324.039 157.721 C 324.334 157.426,324.530 152.717,324.638 143.341 C 324.799 129.402,324.805 126.867,324.706 116.000 C 324.677 112.810,324.802 107.745,324.985 104.745 C 325.204 101.127,325.158 97.623,324.848 94.345 C 324.527 90.955,324.497 88.115,324.753 85.314 C 324.970 82.940,324.982 80.092,324.781 78.514 C 324.568 76.835,324.603 73.958,324.873 70.970 C 325.465 64.418,325.128 61.965,323.367 60.016 C 322.615 59.184,322.000 58.157,322.000 57.734 C 322.000 52.941,314.932 49.421,305.500 49.516 C 300.440 49.566,298.249 49.567,278.200 49.518 C 268.960 49.496,258.790 49.484,255.600 49.492 C 252.410 49.499,246.110 49.506,241.600 49.505 C 237.090 49.505,232.500 49.540,231.400 49.583 C 230.300 49.627,227.510 49.550,225.200 49.413 C 222.558 49.256,220.777 49.317,220.400 49.576 M107.537 189.386 C 107.392 189.537,100.333 189.651,91.851 189.639 L 76.428 189.617 74.590 191.209 C 73.579 192.084,72.514 192.800,72.225 192.800 C 71.935 192.800,71.475 193.069,71.202 193.397 C 70.930 193.726,70.029 194.177,69.201 194.400 C 68.105 194.695,67.589 195.104,67.307 195.903 C 67.094 196.506,66.697 197.630,66.424 198.400 C 65.345 201.447,64.692 205.689,64.362 211.800 C 64.172 215.320,63.905 219.350,63.770 220.755 C 63.619 222.315,63.694 223.639,63.961 224.155 C 64.265 224.743,64.431 236.055,64.506 261.400 C 64.607 295.474,64.661 297.953,65.353 300.200 C 67.108 305.907,67.117 305.922,69.236 306.894 C 70.321 307.392,71.315 308.131,71.443 308.536 C 72.115 310.652,70.672 310.590,122.600 310.723 C 177.179 310.862,176.226 310.917,177.606 307.585 C 177.961 306.728,178.700 306.059,179.947 305.466 C 182.821 304.099,182.705 306.089,182.951 253.736 C 183.069 228.401,183.284 207.204,183.428 206.632 C 183.753 205.334,183.000 200.921,181.950 197.971 C 181.160 195.755,181.137 195.734,177.579 193.990 C 175.535 192.988,173.903 191.924,173.771 191.508 C 173.177 189.638,173.552 189.661,143.400 189.608 C 127.780 189.581,113.380 189.458,111.400 189.335 C 109.420 189.212,107.681 189.235,107.537 189.386 M219.200 189.884 C 217.009 190.190,216.416 190.450,214.776 191.820 C 213.837 192.605,212.577 193.345,211.975 193.465 C 210.626 193.735,208.000 195.843,208.000 196.656 C 208.000 196.985,207.402 197.827,206.670 198.527 C 204.299 200.797,204.297 200.869,204.673 253.600 C 204.988 297.718,205.052 300.681,205.728 301.926 C 206.777 303.859,211.893 308.682,214.121 309.838 L 216.043 310.835 265.464 310.718 L 314.885 310.600 316.542 308.697 C 317.454 307.650,318.391 306.795,318.625 306.797 C 319.398 306.803,321.057 304.631,321.779 302.670 C 322.169 301.609,322.739 300.645,323.044 300.528 C 323.509 300.349,323.600 296.935,323.600 279.781 C 323.600 266.523,323.742 259.160,324.000 259.000 C 324.220 258.864,324.399 257.458,324.397 255.876 C 324.396 254.294,324.609 250.368,324.873 247.151 C 325.232 242.753,325.243 239.430,324.914 233.751 C 324.633 228.885,324.592 222.362,324.800 215.405 L 325.122 204.611 323.771 203.115 C 323.028 202.293,322.313 201.121,322.182 200.510 C 322.052 199.900,321.777 198.987,321.572 198.481 C 321.368 197.976,321.200 197.059,321.200 196.443 C 321.200 194.968,320.623 194.521,315.294 191.864 L 310.789 189.618 265.494 189.681 C 240.582 189.716,219.750 189.808,219.200 189.884 M76.726 332.208 C 76.591 332.342,75.366 332.712,74.002 333.030 C 70.663 333.809,66.946 337.376,66.391 340.332 C 66.199 341.360,65.674 344.074,65.224 346.363 C 64.754 348.760,64.553 350.712,64.751 350.963 C 64.939 351.204,65.006 353.740,64.899 356.600 C 64.512 366.926,64.363 380.126,64.627 380.756 C 64.775 381.110,64.842 385.900,64.777 391.400 C 64.425 421.004,64.411 437.733,64.739 438.145 C 64.939 438.395,65.391 439.770,65.745 441.200 C 66.917 445.938,67.858 448.150,68.865 448.531 C 69.379 448.726,70.610 449.211,71.600 449.608 C 73.938 450.547,78.252 451.234,82.009 451.265 C 90.456 451.335,117.498 451.379,134.600 451.351 C 139.880 451.343,148.610 451.350,154.000 451.367 C 172.829 451.428,177.190 450.772,179.066 447.597 C 179.455 446.938,180.062 446.307,180.415 446.195 C 180.769 446.083,181.450 445.294,181.929 444.441 L 182.800 442.891 182.771 393.146 C 182.740 340.576,182.708 339.503,181.163 338.352 C 178.508 336.374,177.984 335.876,177.508 334.880 C 177.091 334.006,176.571 333.717,174.790 333.364 C 173.578 333.124,172.230 332.748,171.793 332.528 C 171.083 332.169,89.997 332.123,83.600 332.478 C 82.390 332.545,80.403 332.457,79.185 332.282 C 77.967 332.107,76.860 332.074,76.726 332.208 M220.725 332.209 C 220.531 332.403,217.452 332.879,212.548 333.473 C 211.252 333.630,210.790 333.902,210.402 334.736 C 210.130 335.321,209.776 336.070,209.616 336.400 C 209.456 336.730,208.582 337.504,207.673 338.120 C 204.851 340.031,205.000 337.007,205.000 392.400 C 205.000 445.356,204.949 443.938,206.900 444.827 C 207.404 445.057,208.263 446.082,208.808 447.106 C 209.706 448.791,210.020 449.032,212.126 449.650 C 213.405 450.026,215.052 450.618,215.786 450.967 C 217.401 451.733,300.933 451.956,301.403 451.195 C 301.553 450.953,303.707 450.798,306.727 450.811 C 310.166 450.826,312.573 450.628,314.200 450.195 C 315.520 449.844,317.244 449.416,318.031 449.244 C 320.026 448.810,320.275 448.594,320.565 447.045 C 320.706 446.294,321.266 445.024,321.811 444.222 C 322.355 443.421,322.800 442.585,322.800 442.366 C 322.800 442.147,323.160 441.262,323.600 440.400 C 324.550 438.538,324.871 407.831,323.950 406.910 C 323.617 406.577,323.617 406.126,323.950 405.171 C 324.518 403.543,324.561 391.346,324.000 391.000 C 323.458 390.665,323.489 385.471,324.036 384.924 C 324.319 384.641,324.382 383.523,324.216 381.744 C 323.710 376.321,323.539 361.501,323.978 361.062 C 324.829 360.211,324.524 344.636,323.641 343.837 C 323.224 343.460,322.692 342.395,322.460 341.471 C 321.120 336.152,314.446 331.935,308.200 332.461 C 307.320 332.535,305.250 332.516,303.600 332.417 C 300.787 332.249,232.108 332.261,226.352 332.431 C 224.896 332.474,223.083 332.392,222.323 332.250 C 221.564 332.107,220.845 332.089,220.725 332.209 " stroke="none" fill="#4b4c53" fill-rule="evenodd"></path><path id="path1" d="M0.000 269.400 L 0.000 538.800 200.000 538.800 L 400.000 538.800 400.000 269.400 L 400.000 0.000 367.800 0.000 L 335.600 0.000 335.600 1.400 C 335.600 2.767,335.562 2.800,334.000 2.800 C 332.322 2.800,331.610 1.478,333.000 0.945 C 333.330 0.818,333.600 0.554,333.600 0.357 C 333.600 0.148,264.411 0.000,166.800 0.000 L 0.000 0.000 0.000 269.400 M117.800 43.527 C 136.735 43.694,152.509 43.674,153.400 43.481 C 156.775 42.751,157.897 42.726,159.110 43.354 C 160.128 43.880,161.352 43.942,166.662 43.740 L 173.000 43.498 174.619 45.100 C 175.935 46.403,176.625 46.756,178.311 46.988 C 181.092 47.370,183.600 49.622,183.600 51.736 C 183.600 51.963,183.963 52.535,184.407 53.007 C 184.851 53.480,185.533 55.110,185.924 56.631 C 186.467 58.744,186.819 59.430,187.417 59.539 C 189.245 59.874,189.600 60.707,189.600 64.662 C 189.600 66.887,189.762 68.400,190.000 68.400 C 190.483 68.400,190.541 72.880,190.065 73.420 C 189.353 74.228,188.779 80.509,188.786 87.400 C 188.790 91.360,188.781 96.850,188.766 99.600 C 188.720 108.186,188.706 122.482,188.741 125.200 C 188.760 126.630,188.791 129.240,188.811 131.000 C 188.940 142.386,189.213 153.319,189.417 155.200 C 189.651 157.367,189.630 157.424,188.027 158.981 C 186.498 160.467,186.400 160.700,186.400 162.850 C 186.400 166.688,183.831 170.800,181.434 170.800 C 181.154 170.800,180.591 171.168,180.183 171.619 C 178.971 172.958,177.241 173.550,172.689 174.184 C 170.318 174.514,168.007 174.982,167.553 175.225 C 166.949 175.549,166.436 175.546,165.640 175.217 C 164.901 174.910,162.000 174.828,156.576 174.961 C 152.189 175.068,148.015 175.155,147.300 175.155 C 139.559 175.153,137.821 175.163,136.700 175.213 C 135.985 175.245,134.438 175.141,133.261 174.981 C 131.889 174.795,130.338 174.879,128.934 175.216 C 127.188 175.635,126.472 175.642,125.392 175.252 C 123.514 174.572,100.538 174.572,99.047 175.251 C 98.232 175.623,97.669 175.619,96.500 175.233 C 95.480 174.897,91.414 174.712,83.800 174.656 C 70.608 174.559,68.504 174.178,67.568 171.716 C 67.377 171.212,66.977 170.800,66.680 170.800 C 65.611 170.800,64.318 168.825,63.648 166.170 C 63.004 163.617,62.647 163.110,61.192 162.677 C 60.440 162.453,59.396 158.077,58.819 152.723 C 58.570 150.417,58.400 137.892,58.400 121.800 C 58.400 106.924,58.255 94.842,58.078 94.952 C 57.901 95.061,57.710 93.649,57.652 91.815 C 57.588 89.775,57.713 88.377,57.974 88.216 C 58.257 88.041,58.401 84.628,58.403 78.076 C 58.405 72.644,58.585 66.647,58.802 64.748 C 59.063 62.470,59.063 60.586,58.801 59.206 C 58.387 57.020,59.974 54.400,61.713 54.400 C 62.415 54.400,64.158 52.218,64.588 50.800 C 65.238 48.660,67.494 47.091,70.550 46.655 C 71.402 46.534,72.438 46.127,72.852 45.753 C 73.641 45.039,74.981 44.202,76.000 43.787 C 76.330 43.652,76.870 43.378,77.200 43.178 C 77.530 42.978,79.150 42.907,80.800 43.021 C 82.450 43.134,99.100 43.362,117.800 43.527 M275.600 43.596 C 282.310 43.799,288.054 43.878,288.365 43.771 C 288.675 43.663,293.496 43.580,299.078 43.585 C 309.981 43.596,312.333 43.891,314.028 45.460 C 314.639 46.026,316.099 46.646,317.628 46.991 C 322.555 48.101,323.102 48.401,324.003 50.495 C 324.454 51.543,325.034 52.400,325.292 52.400 C 325.865 52.400,328.400 54.804,328.400 55.347 C 328.400 55.561,328.694 56.062,329.054 56.460 C 329.614 57.078,329.640 57.431,329.238 58.892 C 328.901 60.114,328.861 62.308,329.097 66.600 C 329.363 71.432,329.418 82.517,329.197 86.600 C 328.988 90.460,329.505 100.404,329.942 100.930 C 330.322 101.388,330.344 101.757,330.028 102.348 C 329.429 103.466,329.471 110.511,330.080 111.120 C 330.453 111.493,330.453 111.707,330.080 112.080 C 329.490 112.670,329.419 119.441,330.000 119.800 C 330.220 119.936,330.400 120.476,330.400 121.000 C 330.400 121.524,330.220 122.064,330.000 122.200 C 329.387 122.579,329.463 145.303,330.080 145.920 C 330.453 146.293,330.453 146.507,330.080 146.880 C 329.816 147.144,329.600 148.201,329.600 149.230 C 329.600 150.258,329.330 151.865,329.000 152.800 C 328.625 153.863,328.400 155.954,328.400 158.380 L 328.400 162.259 326.202 164.429 C 324.881 165.734,324.004 166.947,324.002 167.471 C 324.000 168.318,321.475 170.797,320.609 170.803 C 320.384 170.804,319.889 171.351,319.509 172.019 C 318.087 174.518,317.776 174.555,297.000 174.676 C 283.982 174.752,277.739 174.931,276.700 175.257 C 275.519 175.628,274.966 175.619,274.100 175.213 C 272.777 174.592,258.558 174.608,256.919 175.231 C 256.168 175.516,255.113 175.437,253.085 174.944 C 250.649 174.352,250.049 174.334,248.443 174.802 C 247.430 175.097,246.150 175.301,245.600 175.255 C 235.966 174.439,227.072 174.989,226.165 176.456 C 226.015 176.699,225.758 176.697,225.461 176.451 C 224.214 175.416,221.208 174.811,217.282 174.806 C 212.813 174.800,212.655 174.729,210.681 171.849 C 210.286 171.272,209.632 170.800,209.227 170.800 C 208.822 170.800,207.976 170.531,207.346 170.202 C 206.716 169.874,205.920 169.604,205.578 169.602 C 203.996 169.596,202.451 167.121,202.206 164.200 C 201.928 160.877,201.205 157.152,200.736 156.620 C 200.551 156.411,200.400 155.916,200.400 155.520 C 200.400 155.124,200.220 154.800,200.000 154.800 C 199.773 154.800,199.600 153.640,199.600 152.119 C 199.600 149.247,198.092 146.800,196.322 146.800 C 195.055 146.800,195.800 142.665,197.225 141.784 C 197.431 141.657,197.600 139.684,197.600 137.400 C 197.600 135.063,197.775 133.139,198.000 133.000 C 198.220 132.864,198.400 131.964,198.400 131.000 C 198.400 130.036,198.220 129.136,198.000 129.000 C 197.780 128.864,197.600 127.683,197.600 126.376 C 197.600 125.059,197.778 124.000,198.000 124.000 C 198.262 124.000,198.400 115.681,198.400 99.843 C 198.400 78.739,198.476 75.656,199.000 75.455 C 199.451 75.282,199.600 74.558,199.600 72.538 C 199.600 70.485,199.775 69.657,200.342 69.026 C 201.079 68.206,201.975 62.100,202.019 57.600 C 202.043 55.100,202.740 53.711,204.603 52.449 C 205.974 51.520,206.228 51.116,206.400 49.598 C 206.614 47.704,206.715 47.640,210.600 46.924 C 211.260 46.802,212.070 46.492,212.400 46.234 C 212.730 45.976,213.450 45.567,214.000 45.324 C 218.114 43.505,216.794 43.600,238.060 43.594 C 251.020 43.590,258.414 43.443,258.800 43.182 C 259.130 42.958,260.298 42.877,261.400 43.001 C 262.500 43.125,268.890 43.393,275.600 43.596 M115.954 185.594 C 117.127 185.906,122.170 186.058,131.154 186.052 C 138.549 186.048,151.080 186.065,159.000 186.091 C 172.866 186.136,175.597 185.981,176.717 185.087 C 177.076 184.800,177.375 184.815,177.697 185.137 C 177.952 185.392,178.392 185.600,178.675 185.600 C 179.862 185.600,180.800 186.964,180.800 188.689 C 180.800 190.069,180.939 190.400,181.519 190.400 C 182.737 190.400,184.999 193.208,185.546 195.400 C 185.821 196.500,186.539 197.940,187.143 198.600 C 189.500 201.179,190.194 207.026,188.852 213.000 C 188.416 214.937,188.400 216.404,188.766 220.600 C 189.373 227.562,189.383 231.095,188.801 233.037 C 188.477 234.120,188.403 235.961,188.576 238.626 C 188.931 244.085,188.851 253.751,188.366 264.000 C 187.901 273.831,187.887 275.395,188.224 279.763 C 188.394 281.975,188.315 283.212,187.959 283.877 C 187.558 284.625,187.551 285.109,187.925 286.143 C 188.508 287.756,188.571 297.447,188.000 297.800 C 187.780 297.936,187.600 298.555,187.600 299.175 C 187.600 299.795,187.352 300.508,187.050 300.759 C 186.747 301.010,186.282 302.067,186.016 303.108 C 185.066 306.830,184.393 308.188,183.092 309.005 C 182.387 309.448,181.448 310.387,181.005 311.092 C 179.455 313.559,171.581 314.963,162.200 314.443 C 161.100 314.382,159.094 314.458,157.742 314.611 C 156.173 314.789,154.763 314.718,153.842 314.414 C 152.333 313.916,146.800 314.602,146.800 315.287 C 146.800 315.726,132.645 315.681,132.180 315.240 C 131.779 314.861,124.658 314.298,121.600 314.404 C 118.655 314.506,114.697 314.495,113.200 314.380 C 112.430 314.321,110.425 314.416,108.745 314.591 C 106.712 314.803,105.258 314.759,104.397 314.459 C 103.034 313.984,97.802 314.549,97.020 315.256 C 96.477 315.747,83.705 315.694,83.400 315.200 C 83.264 314.980,81.745 314.800,80.025 314.800 C 78.216 314.800,76.320 314.559,75.526 314.227 C 74.772 313.912,72.545 313.376,70.578 313.036 C 67.070 312.430,66.965 312.378,65.200 310.419 C 61.510 306.321,60.400 304.895,60.400 304.256 C 60.400 303.895,60.238 303.600,60.039 303.600 C 58.693 303.600,58.467 286.775,58.999 226.200 C 59.244 198.380,59.073 200.231,61.616 197.824 C 62.706 196.792,63.703 195.464,63.832 194.874 C 64.361 192.441,64.880 191.686,66.529 190.951 C 67.448 190.541,68.963 189.508,69.896 188.656 C 71.945 186.783,73.018 186.606,86.200 185.968 C 96.206 185.484,98.963 185.460,103.200 185.822 C 106.264 186.083,110.400 185.480,110.400 184.771 C 110.400 184.567,110.749 184.400,111.176 184.400 C 111.603 184.400,112.072 184.206,112.219 183.970 C 112.391 183.691,112.785 183.818,113.342 184.334 C 113.814 184.771,114.989 185.338,115.954 185.594 M317.600 186.190 C 319.021 186.493,322.800 189.724,322.800 190.636 C 322.800 190.892,323.069 191.325,323.398 191.598 C 323.727 191.872,324.207 192.798,324.464 193.657 C 324.767 194.668,325.297 195.395,325.966 195.715 C 328.396 196.880,329.599 207.063,329.093 222.200 C 329.042 223.740,329.079 227.970,329.176 231.600 C 329.667 250.069,328.761 302.228,327.918 304.000 C 327.213 305.483,320.814 312.000,319.313 312.763 C 317.710 313.578,313.425 314.790,312.124 314.795 C 311.422 314.798,310.736 314.980,310.600 315.200 C 310.456 315.433,308.204 315.600,305.200 315.600 C 302.196 315.600,299.944 315.433,299.800 315.200 C 299.664 314.980,298.494 314.800,297.200 314.800 C 295.906 314.800,294.736 314.980,294.600 315.200 C 294.255 315.758,215.912 315.752,215.354 315.194 C 215.131 314.971,213.610 314.510,211.974 314.170 C 209.015 313.556,206.400 311.860,206.400 310.555 C 206.400 310.287,205.696 309.510,204.836 308.828 C 201.938 306.533,201.950 306.636,201.767 282.000 C 201.446 238.957,201.409 237.674,200.446 236.648 C 199.980 236.153,199.600 235.439,199.600 235.062 C 199.600 234.684,199.330 234.271,199.000 234.145 C 198.630 234.003,198.400 233.395,198.400 232.557 C 198.400 231.811,198.220 231.200,198.000 231.200 C 197.765 231.200,197.600 229.814,197.600 227.843 C 197.600 225.228,197.467 224.435,197.000 224.255 C 196.670 224.129,196.400 223.670,196.400 223.236 C 196.400 222.802,196.220 222.336,196.000 222.200 C 195.479 221.878,195.479 218.522,196.000 218.200 C 196.220 218.064,196.403 217.468,196.407 216.876 C 196.411 216.257,196.835 215.400,197.407 214.858 C 197.974 214.320,198.401 213.463,198.402 212.858 C 198.404 212.276,198.674 211.284,199.002 210.654 C 199.331 210.024,199.600 209.136,199.600 208.680 C 199.600 208.224,199.939 207.480,200.354 207.026 C 200.921 206.405,201.274 204.869,201.777 200.835 C 202.598 194.261,202.903 193.621,205.882 192.224 C 207.157 191.627,209.010 190.357,210.000 189.403 C 213.267 186.255,209.756 186.477,257.264 186.417 C 280.659 186.387,300.610 186.210,301.600 186.023 C 303.692 185.627,315.541 185.751,317.600 186.190 M95.461 326.021 C 95.751 326.311,107.621 326.443,133.315 326.443 L 170.748 326.444 171.874 327.308 C 172.493 327.783,173.090 328.291,173.200 328.436 C 173.703 329.100,176.702 330.400,177.729 330.400 C 180.222 330.400,184.849 335.834,185.631 339.680 C 185.868 340.846,186.408 342.563,186.831 343.496 C 187.254 344.428,187.600 345.633,187.600 346.172 C 187.600 346.711,187.780 347.264,188.000 347.400 C 188.262 347.562,188.400 360.321,188.400 384.375 C 188.400 416.533,188.475 421.164,189.000 421.600 C 189.858 422.312,189.858 428.888,189.000 429.600 C 188.604 429.928,188.400 430.822,188.400 432.225 C 188.400 433.395,188.220 434.464,188.000 434.600 C 187.780 434.736,187.600 435.341,187.600 435.944 C 187.600 436.547,187.450 437.211,187.267 437.420 C 186.811 437.942,186.108 440.594,185.789 443.000 C 185.119 448.058,183.941 450.480,181.697 451.417 C 180.878 451.759,179.487 452.849,178.604 453.838 C 176.857 455.799,176.930 455.775,168.800 457.032 C 164.107 457.757,80.634 457.627,76.800 456.889 C 71.471 455.862,70.762 455.581,69.926 454.165 C 69.376 453.232,68.647 452.666,67.583 452.348 C 65.714 451.788,64.342 450.346,63.636 448.200 C 63.346 447.320,62.516 445.970,61.790 445.200 C 60.632 443.970,60.390 443.315,59.802 439.811 C 59.434 437.616,59.013 435.546,58.866 435.211 C 58.720 434.875,58.691 414.170,58.802 389.200 C 59.023 339.397,58.840 342.676,61.559 339.800 C 62.391 338.920,63.370 337.390,63.735 336.400 C 65.159 332.532,67.665 330.400,70.788 330.400 C 72.563 330.400,74.962 329.310,75.408 328.300 C 76.008 326.943,77.512 326.413,80.800 326.400 C 82.450 326.393,84.070 326.213,84.400 326.000 C 85.224 325.467,94.926 325.486,95.461 326.021 M310.860 327.100 C 311.135 327.375,311.807 327.600,312.354 327.600 C 312.901 327.600,313.720 327.931,314.174 328.335 C 314.628 328.739,316.233 329.464,317.740 329.945 C 321.585 331.174,322.584 331.767,323.542 333.392 C 324.003 334.173,324.790 334.971,325.290 335.166 C 325.791 335.360,326.740 336.089,327.400 336.786 L 328.600 338.053 328.600 390.326 L 328.600 442.600 327.600 444.372 C 327.050 445.346,326.088 446.426,325.462 446.772 C 324.767 447.155,324.120 447.995,323.800 448.926 C 323.098 450.973,322.175 451.915,320.335 452.467 C 319.199 452.807,318.797 453.144,318.787 453.763 C 318.771 454.770,317.491 456.400,316.716 456.400 C 316.410 456.400,315.935 456.625,315.660 456.900 C 315.265 457.295,304.563 457.400,264.842 457.400 C 210.367 457.400,213.086 457.510,211.961 455.256 C 211.027 453.384,210.342 452.840,208.583 452.576 C 205.033 452.044,202.000 447.585,202.000 442.900 C 202.000 440.245,201.152 435.992,200.323 434.488 C 199.503 433.001,199.234 423.074,200.000 422.600 C 200.241 422.451,200.400 419.663,200.400 415.576 C 200.400 411.325,200.251 408.800,200.000 408.800 C 199.769 408.800,199.600 407.533,199.600 405.800 C 199.600 404.067,199.769 402.800,200.000 402.800 C 200.220 402.800,200.400 401.846,200.400 400.680 C 200.400 399.514,200.625 398.335,200.899 398.061 C 201.604 397.356,201.605 385.845,200.900 385.140 C 200.599 384.839,200.400 383.567,200.400 381.944 C 200.400 380.461,200.220 379.136,200.000 379.000 C 199.780 378.864,199.600 377.784,199.600 376.600 C 199.600 375.416,199.780 374.336,200.000 374.200 C 200.220 374.064,200.400 372.739,200.400 371.256 C 200.400 369.725,200.603 368.357,200.870 368.090 C 201.200 367.760,201.427 363.475,201.632 353.695 C 201.974 337.357,201.966 337.401,205.297 333.919 C 208.054 331.038,208.667 330.638,210.958 330.224 C 212.539 329.938,213.950 329.218,215.400 327.957 C 216.802 326.738,222.438 326.589,267.080 326.595 C 301.165 326.599,310.466 326.706,310.860 327.100 " stroke="none" fill="#343c44" fill-rule="evenodd"></path><path id="path2" d="M155.800 43.200 C 155.664 43.420,155.248 43.601,154.876 43.602 C 154.504 43.604,153.684 43.874,153.054 44.202 C 151.721 44.898,146.767 44.983,144.000 44.359 C 142.891 44.109,129.809 43.902,109.922 43.821 C 74.857 43.677,76.750 43.568,76.341 45.756 C 76.210 46.457,72.953 47.870,71.200 47.987 C 70.870 48.009,69.880 48.375,69.000 48.800 C 68.120 49.225,67.113 49.579,66.762 49.586 C 65.731 49.608,64.616 51.341,62.636 56.000 C 62.403 56.550,61.911 57.450,61.544 58.000 C 60.115 60.141,59.209 73.046,59.467 87.600 C 59.693 100.321,59.767 118.619,59.649 132.400 C 59.482 151.892,60.171 160.603,62.038 162.600 C 62.703 163.312,63.409 164.756,63.771 166.149 C 64.422 168.651,65.080 169.402,67.000 169.829 C 69.191 170.317,70.339 171.130,70.473 172.289 C 70.727 174.480,70.359 174.464,119.200 174.426 C 127.010 174.420,137.270 174.425,142.000 174.437 C 146.730 174.449,151.050 174.448,151.600 174.436 C 152.150 174.423,157.238 174.315,162.906 174.194 C 173.881 173.961,175.851 173.657,176.639 172.073 C 177.153 171.041,180.935 168.841,182.238 168.816 C 183.556 168.791,184.260 167.623,184.780 164.600 C 185.045 163.060,185.553 160.630,185.910 159.200 C 186.266 157.770,186.623 154.710,186.704 152.400 C 186.784 150.090,187.019 148.029,187.225 147.820 C 187.858 147.178,187.690 136.704,187.025 135.361 C 186.238 133.774,186.308 101.931,187.100 101.140 C 187.797 100.443,187.725 97.173,186.978 95.677 C 186.298 94.313,186.552 78.601,187.261 78.162 C 187.736 77.868,187.686 74.900,187.200 74.600 C 186.980 74.464,186.800 72.730,186.800 70.747 C 186.800 62.320,184.602 53.108,182.408 52.343 C 181.734 52.108,181.074 51.460,180.776 50.743 C 180.145 49.218,178.877 48.386,176.516 47.945 C 174.202 47.512,172.800 46.624,172.800 45.591 C 172.800 45.156,172.558 44.800,172.261 44.800 C 171.965 44.800,171.147 44.513,170.442 44.161 C 169.053 43.468,167.344 43.533,163.524 44.424 C 161.328 44.936,161.173 44.917,159.118 43.878 C 156.813 42.711,156.182 42.582,155.800 43.200 M219.176 44.229 C 218.915 44.543,218.450 44.800,218.141 44.800 C 217.833 44.800,217.422 45.216,217.228 45.725 C 216.962 46.426,216.263 46.822,214.338 47.360 C 209.950 48.588,208.515 49.407,207.596 51.207 C 206.750 52.865,206.638 52.950,204.705 53.373 C 202.264 53.907,201.295 59.354,201.640 70.600 C 201.851 77.456,201.843 88.409,201.625 93.400 C 201.369 99.245,201.975 161.811,202.313 164.400 C 202.557 166.272,202.734 166.619,203.500 166.728 C 203.995 166.798,204.400 167.023,204.400 167.228 C 204.400 167.433,204.666 167.600,204.990 167.600 C 205.315 167.600,206.170 167.962,206.890 168.405 C 207.611 168.848,208.878 169.395,209.706 169.622 C 210.781 169.916,211.486 170.469,212.171 171.554 C 213.714 173.998,217.599 174.788,226.600 174.489 C 229.240 174.401,250.235 174.348,273.255 174.372 C 318.678 174.418,316.713 174.523,318.000 172.000 C 318.822 170.389,319.552 169.879,321.695 169.421 C 322.430 169.264,323.048 168.696,323.574 167.694 C 324.005 166.872,325.279 165.301,326.404 164.202 L 328.449 162.203 328.288 111.402 C 328.123 59.170,328.111 58.778,326.674 57.341 C 326.523 57.190,326.400 56.770,326.400 56.408 C 326.400 56.046,325.843 55.221,325.163 54.575 C 324.482 53.929,323.502 52.571,322.985 51.558 C 321.951 49.532,321.392 49.216,317.000 48.176 C 314.779 47.651,313.868 47.194,312.597 45.969 C 310.210 43.668,294.822 42.782,286.862 44.488 C 285.178 44.849,284.330 44.833,282.862 44.413 C 279.986 43.590,219.850 43.416,219.176 44.229 M98.300 47.652 C 128.718 47.448,166.332 47.719,170.400 48.172 C 177.343 48.944,183.154 53.435,184.304 58.915 C 185.202 63.198,185.399 154.771,184.519 159.000 C 183.368 164.532,181.399 167.126,176.922 169.008 C 175.865 169.452,174.135 170.330,173.078 170.959 L 171.155 172.102 124.278 172.130 L 77.400 172.158 75.400 171.135 C 74.300 170.572,71.952 169.634,70.183 169.051 C 66.325 167.778,66.377 167.850,63.801 160.200 C 61.311 152.808,61.255 151.727,61.237 111.162 C 61.229 93.431,61.117 78.650,60.989 78.316 C 60.613 77.337,61.559 65.000,62.202 62.494 C 62.744 60.377,63.235 59.023,64.638 55.774 C 66.145 52.283,70.930 49.508,77.330 48.414 C 79.711 48.007,81.781 47.549,81.930 47.396 C 82.078 47.244,83.820 47.252,85.800 47.415 C 87.780 47.578,93.405 47.685,98.300 47.652 M246.200 47.624 C 276.568 47.525,286.487 47.513,291.500 47.569 C 299.963 47.662,302.844 47.657,306.000 47.541 C 308.735 47.442,310.169 47.630,313.330 48.503 C 320.624 50.519,320.632 50.525,325.140 58.796 L 326.556 61.393 326.462 108.796 C 326.356 162.893,326.568 159.130,323.392 163.400 C 322.901 164.060,322.193 165.261,321.819 166.069 C 321.345 167.091,320.691 167.717,319.665 168.127 C 318.855 168.451,317.384 169.466,316.396 170.382 L 314.600 172.047 304.200 171.979 C 298.480 171.941,276.277 172.027,254.860 172.169 L 215.919 172.428 214.148 170.794 C 213.173 169.896,211.531 168.799,210.498 168.356 C 208.424 167.467,205.151 164.216,204.101 162.000 C 203.307 160.324,203.312 160.640,203.199 103.800 C 203.124 65.522,203.215 61.290,204.206 56.917 C 204.317 56.431,205.260 55.458,206.303 54.754 C 207.347 54.050,208.920 52.706,209.800 51.767 C 211.546 49.904,213.376 49.165,218.200 48.370 C 219.740 48.117,221.180 47.733,221.400 47.517 C 221.641 47.280,222.910 47.236,224.600 47.405 C 226.140 47.559,235.860 47.657,246.200 47.624 M74.316 186.831 C 71.802 187.047,71.504 187.180,69.633 188.931 C 68.534 189.959,67.402 190.806,67.117 190.813 C 66.248 190.834,64.400 192.712,64.400 193.573 C 64.400 194.952,63.178 197.522,62.226 198.146 C 59.945 199.640,58.897 207.204,59.390 218.600 C 59.903 230.462,59.929 232.405,59.974 262.800 C 60.029 299.462,60.073 300.424,61.785 302.364 C 62.482 303.154,63.368 304.648,63.753 305.684 C 64.139 306.720,64.892 308.213,65.427 309.002 C 65.962 309.790,66.400 310.599,66.400 310.799 C 66.400 311.469,70.145 312.828,73.137 313.244 C 79.134 314.078,171.832 313.966,174.363 313.122 C 175.552 312.725,176.928 312.400,177.421 312.400 C 178.260 312.400,180.800 310.020,180.800 309.235 C 180.800 309.049,181.354 308.668,182.031 308.387 C 185.517 306.943,186.045 303.183,186.196 278.722 C 186.304 261.467,186.404 258.674,186.960 257.560 C 187.674 256.130,187.847 251.400,187.200 251.000 C 186.649 250.659,186.696 247.756,187.267 246.841 C 187.637 246.249,187.595 245.798,187.067 244.686 C 186.151 242.753,186.103 232.380,187.002 230.654 C 187.685 229.346,187.836 223.793,187.200 223.400 C 186.666 223.070,186.666 211.730,187.200 211.400 C 187.420 211.264,187.600 210.098,187.600 208.810 C 187.600 207.300,187.778 206.401,188.100 206.283 C 188.500 206.137,188.500 205.994,188.100 205.570 C 187.825 205.278,187.600 204.558,187.600 203.969 C 187.600 203.380,187.330 202.674,187.000 202.400 C 186.670 202.126,186.394 201.519,186.386 201.051 C 186.379 200.583,185.970 198.492,185.477 196.405 L 184.582 192.611 183.191 192.379 C 181.154 192.041,180.067 191.369,177.487 188.855 L 175.175 186.600 126.087 186.600 C 99.089 186.600,75.792 186.704,74.316 186.831 M215.200 186.671 C 214.430 186.773,213.629 187.024,213.420 187.229 C 213.211 187.433,212.751 187.600,212.398 187.600 C 212.046 187.600,211.137 188.250,210.378 189.044 C 208.959 190.530,206.808 192.113,204.668 193.246 C 202.285 194.507,200.878 203.126,201.392 213.299 C 201.784 221.039,201.783 220.976,201.673 236.000 C 201.464 264.519,201.861 300.935,202.406 303.200 C 203.012 305.719,203.842 306.797,206.272 308.221 C 207.252 308.795,208.092 309.627,208.224 310.154 C 208.471 311.137,210.142 312.106,213.200 313.041 C 215.388 313.710,310.087 313.850,315.156 313.192 C 318.403 312.770,320.517 311.782,320.745 310.578 C 320.826 310.150,321.546 309.057,322.346 308.150 C 324.878 305.277,325.609 304.258,326.807 301.936 L 327.975 299.672 328.239 251.736 C 328.384 225.371,328.486 203.005,328.466 202.034 C 328.424 200.092,327.701 198.279,326.422 196.912 C 325.965 196.424,325.073 195.074,324.440 193.912 C 323.529 192.242,322.870 191.591,321.285 190.800 C 320.183 190.250,318.948 189.523,318.541 189.184 C 315.281 186.474,302.973 186.012,255.600 186.822 C 255.050 186.831,246.050 186.759,235.600 186.662 C 225.150 186.565,215.970 186.569,215.200 186.671 M158.800 188.384 C 160.010 188.516,163.160 188.492,165.800 188.331 C 171.424 187.988,173.050 188.308,175.123 190.170 C 175.935 190.900,177.680 192.045,179.000 192.713 C 182.288 194.378,182.974 195.132,184.060 198.279 L 185.000 201.000 184.895 249.400 C 184.837 276.020,184.688 298.520,184.563 299.400 C 184.063 302.919,183.093 305.187,181.624 306.277 C 180.841 306.857,179.434 308.188,178.498 309.233 C 175.769 312.281,178.685 312.118,124.630 312.243 C 69.948 312.369,74.065 312.613,68.600 308.917 C 66.535 307.521,65.632 306.411,64.598 304.000 C 64.268 303.230,63.667 301.970,63.262 301.200 C 61.821 298.461,61.541 295.510,61.765 285.400 C 61.882 280.120,61.952 274.900,61.920 273.800 C 61.740 267.587,61.839 228.726,62.062 218.000 C 62.343 204.541,62.585 202.572,64.446 198.637 C 65.080 197.297,65.600 195.989,65.600 195.731 C 65.600 195.079,67.569 192.801,68.136 192.796 C 68.862 192.790,72.915 190.820,73.739 190.073 C 76.069 187.958,74.597 188.025,117.200 188.087 C 138.870 188.119,157.590 188.252,158.800 188.384 M246.400 188.491 C 255.970 188.541,274.870 188.496,288.400 188.391 L 313.000 188.200 315.060 189.286 C 320.183 191.989,321.603 193.299,322.761 196.400 C 323.213 197.610,324.217 199.584,324.991 200.787 C 325.766 201.989,326.418 203.519,326.439 204.187 C 326.524 206.812,326.450 222.653,326.181 260.200 L 325.899 299.400 323.912 302.800 C 321.808 306.400,318.127 310.271,315.516 311.628 C 314.073 312.378,312.649 312.400,264.667 312.400 L 215.303 312.400 213.306 311.500 C 212.197 311.000,209.839 309.227,207.999 307.510 C 203.198 303.029,203.526 305.445,203.341 273.200 C 203.255 258.350,203.035 238.207,202.852 228.437 C 202.531 211.324,202.755 204.759,203.823 199.896 C 204.335 197.566,207.425 194.264,210.970 192.259 C 212.079 191.632,213.581 190.597,214.307 189.959 C 215.445 188.960,215.972 188.795,218.114 188.760 C 219.481 188.739,221.590 188.581,222.800 188.409 C 224.010 188.238,225.900 188.165,227.000 188.249 C 228.100 188.332,236.830 188.441,246.400 188.491 M76.776 326.932 C 76.239 327.197,75.629 327.800,75.421 328.271 C 74.985 329.255,72.826 330.400,71.405 330.400 C 69.486 330.400,65.600 332.954,65.600 334.216 C 65.600 334.469,65.250 334.993,64.823 335.379 C 64.395 335.766,63.930 336.609,63.789 337.251 C 63.648 337.894,63.103 338.930,62.577 339.554 C 59.985 342.635,59.919 344.091,60.069 395.674 L 60.200 440.748 61.200 441.874 C 62.438 443.269,63.200 444.604,63.200 445.381 C 63.200 448.415,65.000 450.878,68.377 452.466 C 69.819 453.144,71.507 454.172,72.126 454.750 C 73.204 455.756,79.145 456.535,84.400 456.360 C 84.950 456.342,105.380 456.208,129.800 456.063 L 174.200 455.800 176.235 454.200 C 177.354 453.320,179.037 452.150,179.976 451.600 C 186.735 447.639,186.402 450.761,186.422 391.182 C 186.430 364.662,186.353 342.702,186.250 342.382 C 186.147 342.062,185.844 340.810,185.578 339.600 C 184.916 336.590,184.640 336.164,182.834 335.367 C 181.706 334.869,181.067 334.235,180.559 333.110 C 179.899 331.645,178.316 330.400,177.114 330.400 C 176.326 330.400,173.656 328.886,172.457 327.759 C 171.506 326.866,171.200 326.797,169.400 327.070 C 168.300 327.236,166.680 327.300,165.800 327.212 C 163.848 327.016,159.965 327.004,157.800 327.186 C 156.920 327.261,155.480 327.315,154.600 327.306 C 153.720 327.298,142.200 327.280,129.000 327.266 C 115.800 327.251,103.830 327.223,102.400 327.202 C 100.970 327.181,96.290 327.279,92.000 327.421 C 87.023 327.586,83.476 327.526,82.200 327.255 C 78.609 326.494,77.766 326.444,76.776 326.932 M293.400 327.041 C 291.109 327.534,290.017 327.561,287.392 327.194 C 284.958 326.853,283.517 326.861,281.420 327.226 C 279.658 327.533,277.484 327.601,275.427 327.413 C 273.652 327.252,264.370 327.121,254.800 327.123 C 245.230 327.125,236.500 327.117,235.400 327.105 C 234.300 327.093,232.590 327.075,231.600 327.065 C 230.610 327.054,228.754 327.196,227.475 327.381 C 225.868 327.613,224.476 327.554,222.962 327.191 C 221.294 326.791,220.663 326.777,220.307 327.133 C 220.050 327.390,219.573 327.600,219.246 327.600 C 218.919 327.600,218.280 327.936,217.826 328.346 C 217.372 328.757,215.560 329.403,213.800 329.783 C 208.765 330.870,207.733 331.421,207.122 333.348 C 206.765 334.474,206.244 335.164,205.473 335.532 C 201.907 337.233,201.989 335.908,201.949 392.401 C 201.904 454.329,201.068 448.729,210.881 452.189 C 211.994 452.581,212.862 453.164,213.005 453.615 C 213.821 456.186,210.227 456.014,262.561 455.986 C 315.238 455.959,314.528 455.989,316.751 453.698 C 317.825 452.592,318.747 452.046,319.841 451.870 C 321.958 451.530,323.046 450.680,323.630 448.909 C 323.900 448.090,324.904 446.615,325.861 445.631 C 327.839 443.595,327.774 443.955,327.816 434.800 C 328.028 388.147,327.915 344.396,327.578 342.855 C 327.029 340.344,326.085 338.363,324.979 337.400 C 324.474 336.960,323.567 335.634,322.964 334.454 C 321.672 331.925,320.421 331.066,317.070 330.407 C 314.204 329.843,313.409 329.484,311.890 328.067 C 310.894 327.138,310.420 327.021,307.290 326.932 C 305.370 326.877,302.090 326.744,300.000 326.636 C 297.435 326.503,295.290 326.635,293.400 327.041 M99.400 330.126 C 101.932 330.501,103.227 330.492,105.600 330.085 C 108.920 329.515,143.346 329.668,148.600 330.276 C 150.140 330.454,152.691 330.437,154.269 330.239 C 155.978 330.023,158.000 330.023,159.269 330.239 C 160.552 330.456,162.571 330.452,164.344 330.229 C 172.832 329.160,182.333 334.364,183.965 340.977 C 185.402 346.798,184.999 439.460,183.515 444.499 C 182.041 449.508,171.486 454.997,164.871 454.196 C 163.622 454.045,158.865 453.940,154.300 453.963 C 146.532 454.002,134.519 454.013,114.900 453.998 C 110.335 453.995,101.470 454.010,95.200 454.032 C 78.981 454.089,74.000 453.594,71.277 451.655 C 70.658 451.214,69.689 450.737,69.124 450.595 C 67.431 450.170,65.770 448.025,64.793 445.000 C 64.296 443.460,63.419 441.300,62.844 440.200 L 61.800 438.200 61.892 419.200 C 62.025 391.691,62.032 384.281,61.936 372.200 C 61.888 366.260,61.999 360.077,62.181 358.460 C 62.409 356.445,62.353 354.670,62.003 352.818 C 61.416 349.705,62.084 345.649,63.764 342.134 C 64.272 341.070,64.916 339.497,65.195 338.639 C 65.903 336.461,69.344 333.060,71.600 332.309 C 76.951 330.529,79.287 329.982,82.000 329.876 C 89.373 329.588,96.453 329.690,99.400 330.126 M240.700 330.353 C 243.363 330.273,246.542 330.247,249.800 330.276 C 250.900 330.286,253.150 330.282,254.800 330.266 C 256.450 330.250,258.610 330.284,259.600 330.340 C 260.590 330.397,262.297 330.296,263.394 330.117 C 264.596 329.921,266.424 329.965,267.994 330.228 C 269.745 330.522,270.994 330.536,271.800 330.271 C 273.877 329.588,295.008 329.442,297.804 330.091 C 299.459 330.475,300.643 330.536,301.604 330.285 C 305.683 329.224,319.575 332.044,320.346 334.090 C 320.427 334.303,321.001 335.057,321.623 335.765 C 322.245 336.474,323.526 338.481,324.470 340.227 L 326.185 343.400 326.306 391.200 C 326.432 440.977,326.415 441.546,324.772 443.400 C 324.382 443.840,323.367 445.347,322.518 446.749 C 321.520 448.395,320.481 449.557,319.586 450.028 C 314.172 452.876,311.354 453.653,306.842 453.542 C 305.118 453.500,303.413 453.672,302.915 453.939 C 302.253 454.293,291.336 454.409,259.191 454.404 L 216.349 454.397 214.875 453.221 C 214.064 452.574,212.287 451.496,210.928 450.825 C 208.223 449.491,205.984 447.414,204.786 445.130 C 203.990 443.614,202.584 433.714,202.984 432.447 C 203.096 432.091,203.270 411.730,203.369 387.200 C 203.579 335.694,203.208 340.235,207.580 335.649 C 210.832 332.239,213.872 330.810,217.918 330.788 C 219.173 330.781,221.460 330.613,223.000 330.415 C 224.540 330.217,226.880 330.184,228.200 330.341 C 229.539 330.501,231.750 330.439,233.200 330.201 C 234.678 329.959,236.318 329.915,237.000 330.101 C 237.660 330.280,239.325 330.393,240.700 330.353 " stroke="none" fill="#3c444a" fill-rule="evenodd"></path><path id="path3" d="M81.930 47.396 C 81.781 47.549,79.711 48.007,77.330 48.414 C 70.930 49.508,66.145 52.283,64.638 55.774 C 63.235 59.023,62.744 60.377,62.202 62.494 C 61.559 65.000,60.613 77.337,60.989 78.316 C 61.117 78.650,61.229 93.431,61.237 111.162 C 61.255 151.727,61.311 152.808,63.801 160.200 C 66.377 167.850,66.325 167.778,70.183 169.051 C 71.952 169.634,74.300 170.572,75.400 171.135 L 77.400 172.158 124.278 172.130 L 171.155 172.102 173.078 170.959 C 174.135 170.330,175.865 169.452,176.922 169.008 C 181.399 167.126,183.368 164.532,184.519 159.000 C 185.399 154.771,185.202 63.198,184.304 58.915 C 183.154 53.435,177.343 48.944,170.400 48.172 C 166.332 47.719,128.718 47.448,98.300 47.652 C 93.405 47.685,87.780 47.578,85.800 47.415 C 83.820 47.252,82.078 47.244,81.930 47.396 M221.400 47.517 C 221.180 47.733,219.740 48.117,218.200 48.370 C 213.376 49.165,211.546 49.904,209.800 51.767 C 208.920 52.706,207.347 54.050,206.303 54.754 C 205.260 55.458,204.317 56.431,204.206 56.917 C 203.215 61.290,203.124 65.522,203.199 103.800 C 203.312 160.640,203.307 160.324,204.101 162.000 C 205.151 164.216,208.424 167.467,210.498 168.356 C 211.531 168.799,213.173 169.896,214.148 170.794 L 215.919 172.428 254.860 172.169 C 276.277 172.027,298.480 171.941,304.200 171.979 L 314.600 172.047 316.396 170.382 C 317.384 169.466,318.855 168.451,319.665 168.127 C 320.691 167.717,321.345 167.091,321.819 166.069 C 322.193 165.261,322.901 164.060,323.392 163.400 C 326.568 159.130,326.356 162.893,326.462 108.796 L 326.556 61.393 325.140 58.796 C 320.632 50.525,320.624 50.519,313.330 48.503 C 310.169 47.630,308.735 47.442,306.000 47.541 C 302.844 47.657,299.963 47.662,291.500 47.569 C 286.487 47.513,276.568 47.525,246.200 47.624 C 235.860 47.657,226.140 47.559,224.600 47.405 C 222.910 47.236,221.641 47.280,221.400 47.517 M103.000 49.641 C 110.256 49.470,121.562 49.409,125.400 49.520 C 127.380 49.577,131.610 49.512,134.800 49.374 C 138.235 49.226,142.394 49.311,145.000 49.581 C 147.986 49.890,152.092 49.932,157.774 49.711 C 171.295 49.184,176.179 49.880,178.040 52.600 C 178.612 53.436,179.769 54.588,180.611 55.160 C 181.454 55.732,182.327 56.740,182.552 57.400 C 183.218 59.353,183.122 158.904,182.452 161.177 C 181.684 163.781,177.880 167.420,175.531 167.798 C 174.579 167.951,173.177 168.435,172.416 168.874 C 171.222 169.563,170.837 169.608,169.616 169.207 C 168.677 168.898,166.718 168.825,163.800 168.990 C 161.380 169.127,147.970 169.396,134.000 169.588 C 120.030 169.780,107.359 170.058,105.842 170.205 C 103.992 170.385,102.792 170.317,102.194 169.997 C 101.427 169.586,92.578 169.608,82.400 170.045 C 80.309 170.135,77.925 169.641,71.654 167.822 C 70.474 167.480,69.173 167.200,68.763 167.200 C 67.417 167.200,66.877 165.801,65.600 159.000 C 65.394 157.900,64.938 155.740,64.586 154.200 C 64.235 152.660,63.974 151.085,64.006 150.700 C 64.122 149.305,64.015 144.922,63.779 141.432 C 63.615 139.019,63.690 137.578,64.011 136.980 C 64.320 136.403,64.386 135.351,64.203 133.948 C 63.675 129.901,63.537 111.067,64.028 110.148 C 64.319 109.603,64.382 108.521,64.201 107.148 C 64.046 105.967,63.847 99.240,63.759 92.200 C 63.655 83.800,63.445 79.102,63.150 78.533 C 62.890 78.032,62.816 77.102,62.974 76.333 C 63.125 75.600,63.397 73.110,63.579 70.800 C 64.309 61.527,66.499 54.000,68.468 54.000 C 68.643 54.000,69.612 53.208,70.623 52.240 C 72.442 50.497,72.493 50.478,76.071 50.194 C 78.058 50.037,80.160 49.756,80.742 49.571 C 81.324 49.385,85.580 49.348,90.200 49.489 C 94.820 49.629,100.580 49.698,103.000 49.641 M231.400 49.583 C 232.500 49.540,237.090 49.505,241.600 49.505 C 246.110 49.506,252.410 49.499,255.600 49.492 C 258.790 49.484,268.960 49.496,278.200 49.518 C 298.249 49.567,300.440 49.566,305.500 49.516 C 314.932 49.421,322.000 52.941,322.000 57.734 C 322.000 58.157,322.615 59.184,323.367 60.016 C 325.128 61.965,325.465 64.418,324.873 70.970 C 324.603 73.958,324.568 76.835,324.781 78.514 C 324.982 80.092,324.970 82.940,324.753 85.314 C 324.497 88.115,324.527 90.955,324.848 94.345 C 325.158 97.623,325.204 101.127,324.985 104.745 C 324.802 107.745,324.677 112.810,324.706 116.000 C 324.805 126.867,324.799 129.402,324.638 143.341 C 324.530 152.717,324.334 157.426,324.039 157.721 C 323.797 157.963,323.600 158.564,323.600 159.057 C 323.600 159.939,322.288 162.521,321.345 163.496 C 321.081 163.769,320.750 164.518,320.608 165.162 C 320.424 166.000,319.933 166.526,318.876 167.016 C 318.064 167.392,316.822 168.131,316.116 168.658 L 314.832 169.616 296.716 169.420 C 286.752 169.312,277.160 169.195,275.400 169.161 C 273.640 169.126,270.940 169.322,269.400 169.597 C 266.210 170.165,260.418 170.348,259.760 169.901 C 259.518 169.736,258.450 169.764,257.386 169.963 C 256.234 170.178,255.068 170.178,254.500 169.962 C 253.021 169.400,221.865 169.495,221.297 170.063 C 220.946 170.414,220.686 170.403,220.222 170.018 C 219.664 169.555,218.662 169.618,217.111 170.213 C 216.802 170.331,215.750 169.794,214.774 169.018 C 213.798 168.242,212.416 167.496,211.703 167.360 C 210.482 167.127,208.000 164.872,208.000 163.996 C 208.000 163.790,207.485 163.354,206.856 163.029 C 204.874 162.004,204.430 159.205,204.698 149.400 C 204.753 147.420,204.712 127.260,204.608 104.600 C 204.394 57.907,204.450 56.760,207.000 55.835 C 208.772 55.192,210.336 54.033,210.614 53.155 C 211.018 51.884,215.232 50.001,217.689 49.994 C 218.850 49.991,220.070 49.802,220.400 49.576 C 220.777 49.317,222.558 49.256,225.200 49.413 C 227.510 49.550,230.300 49.627,231.400 49.583 M76.140 188.715 C 75.227 189.092,74.146 189.703,73.739 190.073 C 72.915 190.820,68.862 192.790,68.136 192.796 C 67.569 192.801,65.600 195.079,65.600 195.731 C 65.600 195.989,65.080 197.297,64.446 198.637 C 62.585 202.572,62.343 204.541,62.062 218.000 C 61.839 228.726,61.740 267.587,61.920 273.800 C 61.952 274.900,61.882 280.120,61.765 285.400 C 61.541 295.510,61.821 298.461,63.262 301.200 C 63.667 301.970,64.268 303.230,64.598 304.000 C 65.632 306.411,66.535 307.521,68.600 308.917 C 74.065 312.613,69.948 312.369,124.630 312.243 C 178.685 312.118,175.769 312.281,178.498 309.233 C 179.434 308.188,180.841 306.857,181.624 306.277 C 183.093 305.187,184.063 302.919,184.563 299.400 C 184.688 298.520,184.837 276.020,184.895 249.400 L 185.000 201.000 184.060 198.279 C 182.974 195.132,182.288 194.378,179.000 192.713 C 177.680 192.045,175.935 190.900,175.123 190.170 C 173.050 188.308,171.424 187.988,165.800 188.331 C 163.160 188.492,160.010 188.516,158.800 188.384 C 152.699 187.720,77.824 188.019,76.140 188.715 M222.800 188.409 C 221.590 188.581,219.481 188.739,218.114 188.760 C 215.972 188.795,215.445 188.960,214.307 189.959 C 213.581 190.597,212.079 191.632,210.970 192.259 C 207.425 194.264,204.335 197.566,203.823 199.896 C 202.755 204.759,202.531 211.324,202.852 228.437 C 203.035 238.207,203.255 258.350,203.341 273.200 C 203.526 305.445,203.198 303.029,207.999 307.510 C 209.839 309.227,212.197 311.000,213.306 311.500 L 215.303 312.400 264.667 312.400 C 312.649 312.400,314.073 312.378,315.516 311.628 C 318.127 310.271,321.808 306.400,323.912 302.800 L 325.899 299.400 326.181 260.200 C 326.450 222.653,326.524 206.812,326.439 204.187 C 326.418 203.519,325.766 201.989,324.991 200.787 C 324.217 199.584,323.213 197.610,322.761 196.400 C 321.603 193.299,320.183 191.989,315.060 189.286 L 313.000 188.200 288.400 188.391 C 262.922 188.588,230.492 188.513,227.000 188.249 C 225.900 188.165,224.010 188.238,222.800 188.409 M143.400 189.608 C 173.552 189.661,173.177 189.638,173.771 191.508 C 173.903 191.924,175.535 192.988,177.579 193.990 C 181.137 195.734,181.160 195.755,181.950 197.971 C 183.000 200.921,183.753 205.334,183.428 206.632 C 183.284 207.204,183.069 228.401,182.951 253.736 C 182.705 306.089,182.821 304.099,179.947 305.466 C 178.700 306.059,177.961 306.728,177.606 307.585 C 176.226 310.917,177.179 310.862,122.600 310.723 C 70.672 310.590,72.115 310.652,71.443 308.536 C 71.315 308.131,70.321 307.392,69.236 306.894 C 67.117 305.922,67.108 305.907,65.353 300.200 C 64.661 297.953,64.607 295.474,64.506 261.400 C 64.431 236.055,64.265 224.743,63.961 224.155 C 63.694 223.639,63.619 222.315,63.770 220.755 C 63.905 219.350,64.172 215.320,64.362 211.800 C 64.692 205.689,65.345 201.447,66.424 198.400 C 66.697 197.630,67.094 196.506,67.307 195.903 C 67.589 195.104,68.105 194.695,69.201 194.400 C 70.029 194.177,70.930 193.726,71.202 193.397 C 71.475 193.069,71.935 192.800,72.225 192.800 C 72.514 192.800,73.579 192.084,74.590 191.209 L 76.428 189.617 91.851 189.639 C 100.333 189.651,107.392 189.537,107.537 189.386 C 107.681 189.235,109.420 189.212,111.400 189.335 C 113.380 189.458,127.780 189.581,143.400 189.608 M315.294 191.864 C 320.623 194.521,321.200 194.968,321.200 196.443 C 321.200 197.059,321.368 197.976,321.572 198.481 C 321.777 198.987,322.052 199.900,322.182 200.510 C 322.313 201.121,323.028 202.293,323.771 203.115 L 325.122 204.611 324.800 215.405 C 324.592 222.362,324.633 228.885,324.914 233.751 C 325.243 239.430,325.232 242.753,324.873 247.151 C 324.609 250.368,324.396 254.294,324.397 255.876 C 324.399 257.458,324.220 258.864,324.000 259.000 C 323.742 259.160,323.600 266.523,323.600 279.781 C 323.600 296.935,323.509 300.349,323.044 300.528 C 322.739 300.645,322.169 301.609,321.779 302.670 C 321.057 304.631,319.398 306.803,318.625 306.797 C 318.391 306.795,317.454 307.650,316.542 308.697 L 314.885 310.600 265.464 310.718 L 216.043 310.835 214.121 309.838 C 211.893 308.682,206.777 303.859,205.728 301.926 C 205.052 300.681,204.988 297.718,204.673 253.600 C 204.297 200.869,204.299 200.797,206.670 198.527 C 207.402 197.827,208.000 196.985,208.000 196.656 C 208.000 195.843,210.626 193.735,211.975 193.465 C 212.577 193.345,213.837 192.605,214.776 191.820 C 216.416 190.450,217.009 190.190,219.200 189.884 C 219.750 189.808,240.582 189.716,265.494 189.681 L 310.789 189.618 315.294 191.864 M82.000 329.876 C 79.287 329.982,76.951 330.529,71.600 332.309 C 69.344 333.060,65.903 336.461,65.195 338.639 C 64.916 339.497,64.272 341.070,63.764 342.134 C 62.084 345.649,61.416 349.705,62.003 352.818 C 62.353 354.670,62.409 356.445,62.181 358.460 C 61.999 360.077,61.888 366.260,61.936 372.200 C 62.032 384.281,62.025 391.691,61.892 419.200 L 61.800 438.200 62.844 440.200 C 63.419 441.300,64.296 443.460,64.793 445.000 C 65.770 448.025,67.431 450.170,69.124 450.595 C 69.689 450.737,70.658 451.214,71.277 451.655 C 74.000 453.594,78.981 454.089,95.200 454.032 C 101.470 454.010,110.335 453.995,114.900 453.998 C 134.519 454.013,146.532 454.002,154.300 453.963 C 158.865 453.940,163.622 454.045,164.871 454.196 C 171.486 454.997,182.041 449.508,183.515 444.499 C 184.999 439.460,185.402 346.798,183.965 340.977 C 182.333 334.364,172.832 329.160,164.344 330.229 C 162.571 330.452,160.552 330.456,159.269 330.239 C 158.000 330.023,155.978 330.023,154.269 330.239 C 152.691 330.437,150.140 330.454,148.600 330.276 C 143.346 329.668,108.920 329.515,105.600 330.085 C 103.227 330.492,101.932 330.501,99.400 330.126 C 96.453 329.690,89.373 329.588,82.000 329.876 M233.200 330.201 C 231.750 330.439,229.539 330.501,228.200 330.341 C 226.880 330.184,224.540 330.217,223.000 330.415 C 221.460 330.613,219.173 330.781,217.918 330.788 C 213.872 330.810,210.832 332.239,207.580 335.649 C 203.208 340.235,203.579 335.694,203.369 387.200 C 203.270 411.730,203.096 432.091,202.984 432.447 C 202.584 433.714,203.990 443.614,204.786 445.130 C 205.984 447.414,208.223 449.491,210.928 450.825 C 212.287 451.496,214.064 452.574,214.875 453.221 L 216.349 454.397 259.191 454.404 C 291.336 454.409,302.253 454.293,302.915 453.939 C 303.413 453.672,305.118 453.500,306.842 453.542 C 311.354 453.653,314.172 452.876,319.586 450.028 C 320.481 449.557,321.520 448.395,322.518 446.749 C 323.367 445.347,324.382 443.840,324.772 443.400 C 326.415 441.546,326.432 440.977,326.306 391.200 L 326.185 343.400 324.470 340.227 C 323.526 338.481,322.245 336.474,321.623 335.765 C 321.001 335.057,320.427 334.303,320.346 334.090 C 319.575 332.044,305.683 329.224,301.604 330.285 C 300.643 330.536,299.459 330.475,297.804 330.091 C 295.008 329.442,273.877 329.588,271.800 330.271 C 270.994 330.536,269.745 330.522,267.994 330.228 C 266.424 329.965,264.596 329.921,263.394 330.117 C 262.297 330.296,260.590 330.397,259.600 330.340 C 258.610 330.284,256.450 330.250,254.800 330.266 C 253.150 330.282,250.900 330.286,249.800 330.276 C 246.542 330.247,243.363 330.273,240.700 330.353 C 239.325 330.393,237.660 330.280,237.000 330.101 C 236.318 329.915,234.678 329.959,233.200 330.201 M83.600 332.478 C 89.997 332.123,171.083 332.169,171.793 332.528 C 172.230 332.748,173.578 333.124,174.790 333.364 C 176.571 333.717,177.091 334.006,177.508 334.880 C 177.984 335.876,178.508 336.374,181.163 338.352 C 182.708 339.503,182.740 340.576,182.771 393.146 L 182.800 442.891 181.929 444.441 C 181.450 445.294,180.769 446.083,180.415 446.195 C 180.062 446.307,179.455 446.938,179.066 447.597 C 177.190 450.772,172.829 451.428,154.000 451.367 C 148.610 451.350,139.880 451.343,134.600 451.351 C 117.498 451.379,90.456 451.335,82.009 451.265 C 78.252 451.234,73.938 450.547,71.600 449.608 C 70.610 449.211,69.379 448.726,68.865 448.531 C 67.858 448.150,66.917 445.938,65.745 441.200 C 65.391 439.770,64.939 438.395,64.739 438.145 C 64.411 437.733,64.425 421.004,64.777 391.400 C 64.842 385.900,64.775 381.110,64.627 380.756 C 64.363 380.126,64.512 366.926,64.899 356.600 C 65.006 353.740,64.939 351.204,64.751 350.963 C 64.553 350.712,64.754 348.760,65.224 346.363 C 65.674 344.074,66.199 341.360,66.391 340.332 C 66.946 337.376,70.663 333.809,74.002 333.030 C 75.366 332.712,76.591 332.342,76.726 332.208 C 76.860 332.074,77.967 332.107,79.185 332.282 C 80.403 332.457,82.390 332.545,83.600 332.478 M226.352 332.431 C 232.108 332.261,300.787 332.249,303.600 332.417 C 305.250 332.516,307.320 332.535,308.200 332.461 C 314.446 331.935,321.120 336.152,322.460 341.471 C 322.692 342.395,323.224 343.460,323.641 343.837 C 324.524 344.636,324.829 360.211,323.978 361.062 C 323.539 361.501,323.710 376.321,324.216 381.744 C 324.382 383.523,324.319 384.641,324.036 384.924 C 323.489 385.471,323.458 390.665,324.000 391.000 C 324.561 391.346,324.518 403.543,323.950 405.171 C 323.617 406.126,323.617 406.577,323.950 406.910 C 324.871 407.831,324.550 438.538,323.600 440.400 C 323.160 441.262,322.800 442.147,322.800 442.366 C 322.800 442.585,322.355 443.421,321.811 444.222 C 321.266 445.024,320.706 446.294,320.565 447.045 C 320.275 448.594,320.026 448.810,318.031 449.244 C 317.244 449.416,315.520 449.844,314.200 450.195 C 312.573 450.628,310.166 450.826,306.727 450.811 C 303.707 450.798,301.553 450.953,301.403 451.195 C 300.933 451.956,217.401 451.733,215.786 450.967 C 215.052 450.618,213.405 450.026,212.126 449.650 C 210.020 449.032,209.706 448.791,208.808 447.106 C 208.263 446.082,207.404 445.057,206.900 444.827 C 204.949 443.938,205.000 445.356,205.000 392.400 C 205.000 337.007,204.851 340.031,207.673 338.120 C 208.582 337.504,209.456 336.730,209.616 336.400 C 209.776 336.070,210.130 335.321,210.402 334.736 C 210.790 333.902,211.252 333.630,212.548 333.473 C 217.452 332.879,220.531 332.403,220.725 332.209 C 220.845 332.089,221.564 332.107,222.323 332.250 C 223.083 332.392,224.896 332.474,226.352 332.431 " stroke="none" fill="#757575" fill-rule="evenodd"></path><path id="path4" d="M333.100 0.757 C 331.857 2.017,332.202 2.800,334.000 2.800 C 335.562 2.800,335.600 2.767,335.600 1.400 C 335.600 -0.215,334.371 -0.531,333.100 0.757 M77.200 43.195 C 76.870 43.386,76.330 43.652,76.000 43.787 C 74.981 44.202,73.641 45.039,72.852 45.753 C 72.438 46.127,71.402 46.534,70.550 46.655 C 67.494 47.091,65.238 48.660,64.588 50.800 C 64.158 52.218,62.415 54.400,61.713 54.400 C 59.974 54.400,58.387 57.020,58.801 59.206 C 59.063 60.586,59.063 62.470,58.802 64.748 C 58.585 66.647,58.405 72.644,58.403 78.076 C 58.401 84.628,58.257 88.041,57.974 88.216 C 57.713 88.377,57.588 89.775,57.652 91.815 C 57.710 93.649,57.901 95.061,58.078 94.952 C 58.255 94.842,58.400 106.860,58.400 121.658 C 58.400 153.683,59.036 162.283,61.441 162.746 C 62.145 162.882,62.154 162.839,61.561 162.146 C 61.209 161.736,60.788 161.040,60.625 160.600 C 60.167 159.368,59.566 142.007,59.649 132.400 C 59.767 118.619,59.693 100.321,59.467 87.600 C 59.209 73.046,60.115 60.141,61.544 58.000 C 61.911 57.450,62.403 56.550,62.636 56.000 C 64.616 51.341,65.731 49.608,66.762 49.586 C 67.113 49.579,68.120 49.225,69.000 48.800 C 69.880 48.375,70.870 48.009,71.200 47.987 C 72.953 47.870,76.210 46.457,76.341 45.756 C 76.666 44.018,77.558 43.600,80.962 43.594 C 83.200 43.590,84.015 43.468,83.600 43.200 C 82.861 42.722,78.023 42.718,77.200 43.195 M157.600 42.991 C 157.600 44.221,162.139 45.018,164.600 44.219 C 166.159 43.713,166.128 43.705,163.379 43.901 C 161.248 44.053,160.251 43.944,159.299 43.451 C 157.989 42.774,157.600 42.668,157.600 42.991 M258.800 43.200 C 258.381 43.471,259.046 43.588,261.000 43.588 C 262.954 43.588,263.619 43.471,263.200 43.200 C 262.870 42.987,261.880 42.812,261.000 42.812 C 260.120 42.812,259.130 42.987,258.800 43.200 M292.400 43.622 C 288.318 43.837,288.368 43.845,294.200 43.890 C 297.500 43.916,300.020 43.874,299.800 43.797 C 298.872 43.474,296.339 43.414,292.400 43.622 M94.500 43.897 C 95.985 43.974,98.415 43.974,99.900 43.897 C 101.385 43.820,100.170 43.757,97.200 43.757 C 94.230 43.757,93.015 43.820,94.500 43.897 M110.711 43.893 C 111.651 43.978,113.091 43.977,113.911 43.891 C 114.730 43.805,113.960 43.736,112.200 43.737 C 110.440 43.739,109.770 43.809,110.711 43.893 M130.300 43.893 C 131.235 43.977,132.765 43.977,133.700 43.893 C 134.635 43.809,133.870 43.740,132.000 43.740 C 130.130 43.740,129.365 43.809,130.300 43.893 M141.000 44.079 C 146.858 44.780,151.788 44.889,152.815 44.341 C 153.700 43.869,152.853 43.799,146.215 43.796 C 141.192 43.793,139.417 43.890,141.000 44.079 M170.546 44.202 C 171.176 44.531,171.941 44.800,172.246 44.800 C 172.551 44.800,172.800 45.156,172.800 45.591 C 172.800 46.624,174.202 47.512,176.516 47.945 C 178.877 48.386,180.145 49.218,180.776 50.743 C 181.074 51.460,181.734 52.108,182.408 52.343 C 184.602 53.108,186.800 62.320,186.800 70.747 C 186.800 72.730,186.980 74.464,187.200 74.600 C 187.686 74.900,187.736 77.868,187.261 78.162 C 186.552 78.601,186.298 94.313,186.978 95.677 C 187.725 97.173,187.797 100.443,187.100 101.140 C 186.308 101.931,186.238 133.774,187.025 135.361 C 187.690 136.704,187.858 147.178,187.225 147.820 C 187.019 148.029,186.784 150.090,186.704 152.400 C 186.623 154.710,186.266 157.770,185.910 159.200 C 185.553 160.630,185.045 163.060,184.780 164.600 C 184.260 167.623,183.556 168.791,182.238 168.816 C 180.935 168.841,177.153 171.041,176.640 172.073 C 176.386 172.583,175.554 173.229,174.790 173.509 L 173.400 174.017 175.282 173.787 C 177.436 173.523,179.148 172.763,180.197 171.603 C 180.597 171.161,181.154 170.800,181.434 170.800 C 183.831 170.800,186.400 166.688,186.400 162.850 C 186.400 160.700,186.498 160.467,188.027 158.981 C 189.630 157.424,189.651 157.367,189.417 155.200 C 189.213 153.319,188.940 142.386,188.811 131.000 C 188.791 129.240,188.760 126.630,188.741 125.200 C 188.706 122.482,188.720 108.186,188.766 99.600 C 188.781 96.850,188.790 91.360,188.786 87.400 C 188.779 80.509,189.353 74.228,190.065 73.420 C 190.541 72.880,190.483 68.400,190.000 68.400 C 189.762 68.400,189.600 66.887,189.600 64.662 C 189.600 60.707,189.245 59.874,187.417 59.539 C 186.819 59.430,186.467 58.744,185.924 56.631 C 185.533 55.110,184.851 53.480,184.407 53.007 C 183.963 52.535,183.600 51.963,183.600 51.736 C 183.600 49.622,181.092 47.370,178.311 46.988 C 176.645 46.759,175.927 46.398,174.655 45.151 C 173.280 43.803,172.832 43.600,171.236 43.602 L 169.400 43.605 170.546 44.202 M216.400 44.252 C 215.630 44.601,214.550 45.084,214.000 45.326 C 213.450 45.568,212.730 45.976,212.400 46.234 C 212.070 46.492,211.260 46.802,210.600 46.924 C 206.721 47.639,206.609 47.709,206.477 49.513 C 206.384 50.792,206.107 51.366,205.328 51.899 C 203.724 52.996,202.400 54.319,202.400 54.826 C 202.400 55.081,202.719 54.894,203.110 54.412 C 203.500 53.930,204.445 53.408,205.210 53.252 C 206.303 53.029,206.802 52.602,207.545 51.257 C 208.583 49.377,209.969 48.583,214.338 47.360 C 216.263 46.822,216.962 46.426,217.228 45.725 C 217.422 45.216,217.833 44.800,218.141 44.800 C 218.450 44.800,218.926 44.530,219.200 44.200 C 219.892 43.366,218.291 43.396,216.400 44.252 M233.516 43.897 C 234.899 43.975,237.059 43.974,238.316 43.895 C 239.572 43.816,238.440 43.752,235.800 43.753 C 233.160 43.753,232.132 43.818,233.516 43.897 M269.500 43.897 C 271.095 43.973,273.705 43.973,275.300 43.897 C 276.895 43.821,275.590 43.759,272.400 43.759 C 269.210 43.759,267.905 43.821,269.500 43.897 M282.000 44.164 C 283.574 44.811,285.800 44.916,287.000 44.400 C 287.562 44.158,287.027 44.046,285.200 44.023 C 283.770 44.004,282.150 43.899,281.600 43.789 C 280.967 43.662,281.114 43.800,282.000 44.164 M308.580 44.044 C 310.565 44.334,311.230 44.651,312.580 45.953 C 313.870 47.195,314.771 47.649,317.000 48.176 C 321.392 49.216,321.951 49.532,322.985 51.558 C 323.502 52.571,324.482 53.929,325.163 54.575 C 325.843 55.221,326.400 56.046,326.400 56.408 C 326.400 56.770,326.523 57.190,326.674 57.341 C 328.264 58.931,328.264 58.928,328.393 121.600 C 328.451 149.419,328.540 153.995,329.000 152.800 C 329.297 152.030,329.553 150.491,329.570 149.380 C 329.586 148.269,329.816 147.144,330.080 146.880 C 330.453 146.507,330.453 146.293,330.080 145.920 C 329.463 145.303,329.387 122.579,330.000 122.200 C 330.220 122.064,330.400 121.524,330.400 121.000 C 330.400 120.476,330.220 119.936,330.000 119.800 C 329.419 119.441,329.490 112.670,330.080 112.080 C 330.453 111.707,330.453 111.493,330.080 111.120 C 329.471 110.511,329.429 103.466,330.028 102.348 C 330.344 101.757,330.322 101.388,329.942 100.930 C 329.505 100.404,328.988 90.460,329.197 86.600 C 329.418 82.517,329.363 71.432,329.097 66.600 C 328.861 62.308,328.901 60.114,329.238 58.892 C 329.640 57.431,329.614 57.078,329.054 56.460 C 328.694 56.062,328.400 55.561,328.400 55.347 C 328.400 54.804,325.865 52.400,325.292 52.400 C 325.034 52.400,324.454 51.543,324.003 50.495 C 323.102 48.401,322.555 48.101,317.628 46.991 C 316.099 46.646,314.639 46.026,314.028 45.460 C 312.877 44.395,310.024 43.575,307.723 43.649 C 306.482 43.689,306.641 43.762,308.580 44.044 M200.262 69.131 C 199.785 69.659,199.600 70.611,199.600 72.544 C 199.600 74.558,199.451 75.282,199.000 75.455 C 198.476 75.656,198.400 78.739,198.400 99.843 C 198.400 115.681,198.262 124.000,198.000 124.000 C 197.778 124.000,197.600 125.059,197.600 126.376 C 197.600 127.683,197.780 128.864,198.000 129.000 C 198.220 129.136,198.400 130.036,198.400 131.000 C 198.400 131.964,198.220 132.864,198.000 133.000 C 197.775 133.139,197.600 135.063,197.600 137.400 C 197.600 139.684,197.431 141.657,197.225 141.784 C 195.800 142.665,195.055 146.800,196.322 146.800 C 198.092 146.800,199.600 149.247,199.600 152.119 C 199.600 153.640,199.773 154.800,200.000 154.800 C 200.220 154.800,200.400 155.072,200.400 155.405 C 200.400 155.738,200.565 156.323,200.766 156.705 C 200.967 157.087,201.294 158.030,201.491 158.800 C 201.710 159.651,201.805 147.913,201.734 128.877 C 201.671 111.649,201.527 97.406,201.416 97.225 C 201.304 97.045,201.417 94.040,201.667 90.549 C 202.128 84.100,201.810 68.400,201.218 68.400 C 201.056 68.400,200.626 68.729,200.262 69.131 M202.400 166.777 C 202.400 167.435,205.126 169.544,206.295 169.789 C 207.008 169.939,207.694 170.228,207.819 170.431 C 207.945 170.634,208.478 170.800,209.005 170.800 C 209.589 170.800,210.243 171.209,210.681 171.849 C 212.652 174.724,212.828 174.804,217.082 174.754 L 221.000 174.708 217.800 174.237 C 213.992 173.678,213.155 173.268,212.072 171.433 C 211.491 170.447,210.811 169.924,209.727 169.628 C 208.887 169.398,207.611 168.848,206.890 168.405 C 206.170 167.962,205.315 167.600,204.990 167.600 C 204.666 167.600,204.400 167.441,204.400 167.247 C 204.400 167.052,203.950 166.807,203.400 166.702 C 202.850 166.597,202.400 166.631,202.400 166.777 M323.298 168.144 C 323.016 168.764,322.382 169.273,321.714 169.417 C 319.555 169.879,318.895 170.353,317.880 172.168 C 317.317 173.175,316.999 174.000,317.174 174.000 C 317.781 174.000,319.554 172.375,319.803 171.590 C 319.941 171.155,320.282 170.800,320.560 170.800 C 321.371 170.800,324.138 168.213,323.945 167.635 C 323.837 167.312,323.588 167.507,323.298 168.144 M65.200 169.800 C 65.717 170.350,66.383 170.800,66.680 170.800 C 66.977 170.800,67.377 171.212,67.568 171.716 C 68.155 173.259,70.800 174.450,73.446 174.362 C 74.305 174.333,74.089 174.205,72.600 173.861 C 70.850 173.456,70.584 173.260,70.473 172.296 C 70.337 171.110,69.180 170.307,66.905 169.817 C 66.192 169.664,65.506 169.372,65.381 169.169 C 65.255 168.966,64.952 168.800,64.707 168.800 C 64.461 168.800,64.683 169.250,65.200 169.800 M94.800 174.352 L 93.400 174.638 95.000 174.946 C 96.935 175.317,97.992 175.306,102.400 174.871 L 105.800 174.535 102.756 174.468 C 101.082 174.430,98.922 174.325,97.956 174.233 C 96.990 174.141,95.570 174.195,94.800 174.352 M134.800 174.400 L 132.600 174.600 134.717 175.141 C 136.378 175.566,137.080 175.581,137.974 175.211 C 138.717 174.903,140.346 174.817,142.657 174.964 C 148.234 175.319,148.519 175.316,150.000 174.887 C 151.387 174.486,151.380 174.481,149.200 174.408 C 143.679 174.221,136.806 174.218,134.800 174.400 M153.600 174.425 C 152.830 174.573,155.047 174.718,158.526 174.747 C 162.198 174.778,165.192 174.982,165.663 175.233 C 166.250 175.548,166.777 175.541,167.580 175.208 C 168.188 174.956,169.567 174.606,170.643 174.431 C 171.904 174.226,169.470 174.120,163.800 174.134 C 158.960 174.145,154.370 174.276,153.600 174.425 M232.400 174.440 C 231.410 174.572,233.423 174.707,236.874 174.740 C 240.325 174.773,243.655 174.994,244.274 175.231 C 245.149 175.565,245.908 175.508,247.684 174.972 C 249.684 174.369,250.256 174.348,252.284 174.801 C 253.558 175.087,255.050 175.289,255.600 175.251 C 256.150 175.213,259.570 175.040,263.200 174.867 C 266.830 174.694,269.620 174.495,269.400 174.425 C 268.650 174.185,234.207 174.199,232.400 174.440 M271.656 174.326 C 271.038 174.753,273.327 175.289,275.400 175.203 C 276.060 175.176,281.370 175.023,287.200 174.864 L 297.800 174.574 288.800 174.485 C 283.850 174.436,278.090 174.296,276.000 174.173 C 273.873 174.048,271.960 174.116,271.656 174.326 M79.521 174.699 C 81.788 174.770,85.388 174.770,87.521 174.698 C 89.655 174.626,87.800 174.568,83.400 174.568 C 79.000 174.568,77.255 174.627,79.521 174.699 M108.900 174.687 C 109.505 174.778,110.495 174.778,111.100 174.687 C 111.705 174.595,111.210 174.520,110.000 174.520 C 108.790 174.520,108.295 174.595,108.900 174.687 M114.305 174.683 C 114.802 174.779,115.522 174.775,115.905 174.675 C 116.287 174.575,115.880 174.496,115.000 174.501 C 114.120 174.505,113.807 174.587,114.305 174.683 M122.800 174.834 C 124.010 175.008,125.551 175.267,126.224 175.409 C 126.933 175.559,128.279 175.413,129.424 175.062 L 131.400 174.456 126.000 174.487 C 121.677 174.511,121.039 174.581,122.800 174.834 M222.600 174.777 C 221.924 175.049,222.061 175.170,223.483 175.560 C 224.409 175.814,225.273 176.195,225.404 176.406 C 225.548 176.639,225.989 176.574,226.521 176.243 C 227.004 175.942,227.895 175.580,228.500 175.440 C 229.105 175.300,229.600 175.008,229.600 174.792 C 229.600 174.324,223.762 174.311,222.600 174.777 M304.100 174.697 C 305.805 174.772,308.595 174.772,310.300 174.697 C 312.005 174.622,310.610 174.561,307.200 174.561 C 303.790 174.561,302.395 174.622,304.100 174.697 M112.219 183.970 C 112.072 184.206,111.603 184.400,111.176 184.400 C 110.749 184.400,110.400 184.567,110.400 184.771 C 110.400 185.480,106.264 186.083,103.200 185.822 C 99.447 185.502,96.333 185.501,90.100 185.818 C 78.815 186.392,87.029 186.665,116.300 186.690 C 138.508 186.709,147.000 186.598,146.000 186.299 C 145.120 186.036,139.609 185.915,131.154 185.971 C 117.060 186.064,115.007 185.876,113.342 184.334 C 112.785 183.818,112.391 183.691,112.219 183.970 M176.600 185.200 C 176.464 185.420,175.928 185.600,175.409 185.600 C 174.120 185.600,173.158 186.009,173.426 186.442 C 173.548 186.639,174.048 186.800,174.539 186.800 C 175.083 186.800,176.203 187.591,177.415 188.832 C 179.540 191.008,181.818 192.400,183.254 192.400 L 184.139 192.400 183.200 191.400 C 182.683 190.850,181.932 190.400,181.530 190.400 C 180.937 190.400,180.800 190.079,180.800 188.689 C 180.800 186.934,179.858 185.600,178.619 185.600 C 178.305 185.600,177.936 185.420,177.800 185.200 C 177.664 184.980,177.394 184.800,177.200 184.800 C 177.006 184.800,176.736 184.980,176.600 185.200 M301.800 185.991 C 299.914 186.339,299.562 186.299,308.600 186.776 C 314.524 187.089,317.790 187.890,318.621 189.234 C 318.761 189.460,319.844 190.089,321.029 190.630 C 322.334 191.227,323.416 192.046,323.775 192.708 C 324.101 193.308,324.375 193.599,324.384 193.354 C 324.393 193.109,324.040 192.450,323.600 191.891 C 323.160 191.331,322.800 190.715,322.800 190.522 C 322.800 189.700,318.926 186.473,317.600 186.190 C 315.671 185.779,303.763 185.629,301.800 185.991 M275.891 186.689 C 276.601 186.777,277.861 186.779,278.691 186.692 C 279.521 186.605,278.940 186.533,277.400 186.531 C 275.860 186.529,275.181 186.600,275.891 186.689 M205.000 192.627 C 203.325 193.496,202.747 194.167,204.200 193.557 C 205.287 193.100,206.839 191.996,206.386 192.002 C 206.284 192.004,205.660 192.285,205.000 192.627 M202.673 194.953 C 202.523 195.345,202.411 195.966,202.425 196.333 C 202.442 196.775,202.581 196.674,202.837 196.034 C 203.049 195.503,203.161 194.882,203.085 194.654 C 203.009 194.427,202.824 194.561,202.673 194.953 M63.600 195.506 C 63.600 195.748,62.708 196.790,61.617 197.823 C 59.420 199.903,59.392 199.999,59.041 206.744 C 58.779 211.770,59.054 211.205,59.740 205.308 C 60.286 200.604,61.240 198.000,62.417 198.000 C 62.881 198.000,64.134 195.601,63.829 195.296 C 63.703 195.170,63.600 195.264,63.600 195.506 M325.600 195.817 C 325.600 195.936,325.977 196.431,326.438 196.917 C 326.900 197.403,327.445 198.230,327.650 198.755 C 327.855 199.281,328.114 199.619,328.226 199.507 C 328.488 199.246,327.621 197.210,326.861 196.300 C 326.301 195.630,325.600 195.361,325.600 195.817 M185.651 196.800 C 185.652 198.129,186.650 202.010,187.110 202.470 C 187.379 202.739,187.600 203.428,187.600 204.000 C 187.600 204.572,187.825 205.279,188.100 205.570 C 188.500 205.994,188.500 206.137,188.100 206.283 C 187.778 206.401,187.600 207.300,187.600 208.810 C 187.600 210.098,187.420 211.264,187.200 211.400 C 186.963 211.546,186.800 213.996,186.800 217.400 C 186.800 220.804,186.963 223.254,187.200 223.400 C 187.836 223.793,187.685 229.346,187.002 230.654 C 186.103 232.380,186.151 242.753,187.067 244.686 C 187.595 245.798,187.637 246.249,187.267 246.841 C 186.696 247.756,186.649 250.659,187.200 251.000 C 187.847 251.400,187.674 256.130,186.960 257.560 C 186.404 258.674,186.304 261.467,186.196 278.722 C 186.045 303.183,185.517 306.943,182.031 308.387 C 181.354 308.668,180.800 309.049,180.800 309.235 C 180.800 310.101,178.251 312.402,177.259 312.431 C 176.676 312.448,175.300 312.804,174.200 313.221 L 172.200 313.981 174.600 313.767 C 178.008 313.463,180.052 312.610,181.005 311.092 C 181.448 310.387,182.387 309.448,183.092 309.005 C 184.393 308.188,185.066 306.830,186.016 303.108 C 186.282 302.067,186.747 301.010,187.050 300.759 C 187.352 300.508,187.600 299.795,187.600 299.175 C 187.600 298.555,187.780 297.936,188.000 297.800 C 188.571 297.447,188.508 287.756,187.925 286.143 C 187.551 285.109,187.558 284.625,187.959 283.877 C 188.315 283.212,188.394 281.975,188.224 279.763 C 187.887 275.395,187.901 273.831,188.366 264.000 C 188.851 253.751,188.931 244.085,188.576 238.626 C 188.403 235.961,188.477 234.120,188.801 233.037 C 189.383 231.095,189.373 227.562,188.766 220.600 C 188.400 216.404,188.416 214.937,188.852 213.000 C 190.170 207.133,189.408 200.591,187.171 198.579 C 186.695 198.151,186.158 197.440,185.978 197.000 C 185.776 196.506,185.651 196.430,185.651 196.800 M328.448 208.000 C 328.387 210.530,328.259 232.184,328.164 256.119 L 327.992 299.638 326.816 301.919 C 325.609 304.257,324.880 305.274,322.346 308.150 C 321.546 309.057,320.826 310.150,320.745 310.578 C 320.517 311.782,318.403 312.770,315.156 313.192 C 310.087 313.850,215.388 313.710,213.200 313.041 C 210.142 312.106,208.471 311.137,208.224 310.154 C 208.091 309.625,207.248 308.793,206.255 308.211 C 203.872 306.815,203.077 305.838,202.548 303.662 C 202.235 302.374,202.080 302.117,202.048 302.829 C 201.954 304.843,203.207 307.538,204.836 308.828 C 205.696 309.510,206.400 310.287,206.400 310.555 C 206.400 311.860,209.015 313.556,211.974 314.170 C 213.610 314.510,215.131 314.971,215.354 315.194 C 215.912 315.752,294.255 315.758,294.600 315.200 C 294.736 314.980,295.906 314.800,297.200 314.800 C 298.494 314.800,299.664 314.980,299.800 315.200 C 299.944 315.433,302.196 315.600,305.200 315.600 C 308.204 315.600,310.456 315.433,310.600 315.200 C 310.736 314.980,311.422 314.798,312.124 314.795 C 313.425 314.790,317.710 313.578,319.313 312.763 C 320.814 312.000,327.213 305.483,327.918 304.000 C 328.761 302.228,329.667 250.069,329.176 231.600 C 329.079 227.970,329.042 223.740,329.093 222.200 C 329.144 220.660,329.045 215.800,328.873 211.400 C 328.592 204.232,328.548 203.878,328.448 208.000 M200.300 207.087 C 199.915 207.514,199.600 208.233,199.600 208.686 C 199.600 209.138,199.331 210.024,199.002 210.654 C 198.674 211.284,198.404 212.276,198.402 212.858 C 198.401 213.463,197.974 214.320,197.407 214.858 C 196.835 215.400,196.411 216.257,196.407 216.876 C 196.403 217.468,196.220 218.064,196.000 218.200 C 195.780 218.336,195.600 219.236,195.600 220.200 C 195.600 221.164,195.780 222.064,196.000 222.200 C 196.220 222.336,196.400 222.802,196.400 223.236 C 196.400 223.670,196.670 224.129,197.000 224.255 C 197.467 224.435,197.600 225.228,197.600 227.843 C 197.600 229.814,197.765 231.200,198.000 231.200 C 198.220 231.200,198.400 231.811,198.400 232.557 C 198.400 233.395,198.630 234.003,199.000 234.145 C 199.330 234.271,199.600 234.713,199.600 235.125 C 199.600 235.538,199.950 236.193,200.378 236.580 C 200.806 236.968,201.226 237.941,201.311 238.742 C 201.460 240.149,201.827 224.863,201.732 221.200 C 201.469 211.010,200.993 206.320,200.300 207.087 M59.071 230.600 C 58.142 255.267,58.783 303.600,60.039 303.600 C 60.238 303.600,60.400 303.895,60.400 304.256 C 60.400 304.898,61.559 306.383,65.200 310.410 C 66.531 311.883,67.364 312.454,68.400 312.603 L 69.800 312.806 68.100 311.988 C 67.165 311.538,66.400 311.005,66.400 310.803 C 66.400 310.601,65.962 309.790,65.427 309.002 C 64.892 308.213,64.139 306.720,63.753 305.684 C 63.368 304.648,62.479 303.150,61.778 302.356 C 60.171 300.535,59.843 296.570,60.029 281.200 C 60.225 265.075,59.962 226.363,59.645 224.600 C 59.452 223.527,59.263 225.505,59.071 230.600 M201.714 251.000 C 201.717 252.100,201.795 252.503,201.887 251.895 C 201.979 251.286,201.977 250.386,201.882 249.895 C 201.787 249.403,201.711 249.900,201.714 251.000 M201.693 263.200 C 201.693 263.970,201.775 264.285,201.876 263.900 C 201.976 263.515,201.976 262.885,201.876 262.500 C 201.775 262.115,201.693 262.430,201.693 263.200 M74.800 313.967 C 76.275 314.508,78.014 314.778,80.076 314.787 C 81.768 314.794,83.264 314.980,83.400 315.200 C 83.705 315.694,96.477 315.747,97.020 315.256 C 97.735 314.610,103.078 313.973,104.201 314.400 C 105.418 314.863,108.298 314.886,110.600 314.452 C 113.663 313.874,107.706 313.619,91.274 313.623 C 82.625 313.625,74.885 313.522,74.074 313.394 C 72.864 313.203,72.993 313.305,74.800 313.967 M114.221 313.961 C 113.116 314.393,114.709 314.797,117.400 314.766 C 120.182 314.735,121.439 314.228,119.631 313.866 C 117.918 313.524,115.218 313.571,114.221 313.961 M124.600 313.974 L 123.000 314.215 124.350 314.508 C 125.093 314.668,127.107 314.800,128.826 314.800 C 130.546 314.800,132.064 314.980,132.200 315.200 C 132.496 315.680,146.800 315.758,146.800 315.280 C 146.800 314.655,152.514 313.903,153.726 314.368 C 155.006 314.859,158.605 314.898,159.793 314.434 C 161.707 313.686,129.322 313.264,124.600 313.974 M163.400 313.978 C 161.843 314.236,161.871 314.252,164.459 314.564 C 167.489 314.929,171.348 314.486,169.600 313.973 C 168.386 313.617,165.569 313.619,163.400 313.978 M84.400 326.000 C 84.070 326.213,82.540 326.415,81.000 326.447 L 78.200 326.507 80.200 326.893 C 83.656 327.559,96.540 327.717,99.117 327.125 L 101.400 326.600 98.600 326.480 C 97.060 326.413,95.629 326.188,95.420 325.980 C 94.921 325.481,85.176 325.499,84.400 326.000 M104.400 326.763 C 104.400 327.499,147.631 327.898,153.800 327.218 C 154.020 327.194,155.280 327.200,156.600 327.232 C 157.920 327.264,159.450 327.107,160.000 326.884 C 160.693 326.602,152.304 326.463,132.700 326.430 C 115.086 326.401,104.400 326.527,104.400 326.763 M163.600 326.870 C 164.867 327.402,168.688 327.396,170.000 326.859 C 170.773 326.544,170.046 326.451,166.800 326.451 C 163.500 326.451,162.814 326.541,163.600 326.870 M223.021 326.761 C 221.235 327.460,226.239 327.857,229.000 327.235 L 230.200 326.965 228.600 326.687 C 226.568 326.334,224.026 326.368,223.021 326.761 M232.905 326.835 C 233.817 327.366,237.113 327.379,238.400 326.857 C 239.187 326.537,238.634 326.448,235.800 326.438 C 233.151 326.428,232.386 326.533,232.905 326.835 M242.800 326.800 C 243.533 327.274,247.498 327.274,248.600 326.800 C 249.129 326.573,248.179 326.449,245.800 326.434 C 243.337 326.419,242.389 326.535,242.800 326.800 M252.200 326.800 C 251.875 327.325,257.587 327.325,258.400 326.800 C 258.814 326.532,257.987 326.410,255.724 326.406 C 253.922 326.403,252.336 326.580,252.200 326.800 M262.000 326.800 C 262.000 327.317,267.600 327.317,268.400 326.800 C 268.813 326.533,267.907 326.410,265.500 326.406 C 263.429 326.403,262.000 326.563,262.000 326.800 M272.000 326.741 C 272.000 327.577,278.128 327.845,281.790 327.168 C 283.487 326.854,285.013 326.860,287.363 327.190 C 289.972 327.555,291.143 327.533,293.400 327.074 C 296.081 326.530,295.685 326.503,284.100 326.448 C 277.391 326.416,272.000 326.546,272.000 326.741 M303.400 326.800 C 304.498 327.272,307.270 327.272,308.000 326.800 C 308.415 326.532,307.676 326.419,305.600 326.434 C 303.557 326.449,302.855 326.566,303.400 326.800 M217.800 327.095 C 216.920 327.184,215.840 327.581,215.400 327.978 C 214.960 328.375,214.180 328.917,213.666 329.182 C 213.152 329.448,212.794 329.728,212.871 329.804 C 213.226 330.159,217.091 329.031,217.826 328.357 C 218.280 327.941,218.944 327.600,219.302 327.600 C 219.660 327.600,220.064 327.420,220.200 327.200 C 220.336 326.980,220.212 326.830,219.924 326.867 C 219.636 326.904,218.680 327.007,217.800 327.095 M312.022 328.226 C 312.835 329.206,314.399 329.881,317.075 330.407 C 320.421 331.066,321.673 331.926,322.964 334.454 C 323.567 335.634,324.474 336.960,324.979 337.400 C 326.071 338.351,327.020 340.324,327.576 342.800 C 327.828 343.919,328.001 356.701,328.034 376.600 C 328.064 394.200,328.231 407.880,328.406 407.000 C 328.581 406.120,328.696 390.247,328.662 371.726 L 328.600 338.053 327.400 336.786 C 326.740 336.089,325.791 335.360,325.290 335.166 C 324.790 334.971,324.003 334.173,323.542 333.392 C 322.584 331.767,321.585 331.174,317.740 329.945 C 316.233 329.464,314.628 328.739,314.174 328.335 C 313.102 327.381,311.242 327.287,312.022 328.226 M178.828 330.991 C 179.393 331.299,180.172 332.250,180.557 333.105 C 181.161 334.443,183.766 336.367,184.280 335.853 C 184.533 335.600,178.852 330.401,178.339 330.416 C 178.043 330.425,178.263 330.684,178.828 330.991 M208.600 330.869 C 205.392 332.651,201.970 337.720,202.029 340.600 C 202.050 341.614,202.132 341.511,202.555 339.939 C 203.199 337.548,204.106 336.184,205.493 335.522 C 206.240 335.166,206.768 334.464,207.118 333.361 C 207.489 332.190,207.998 331.548,208.918 331.090 C 209.623 330.738,210.020 330.445,209.800 330.438 C 209.580 330.430,209.040 330.624,208.600 330.869 M66.312 332.102 C 65.322 332.919,63.213 336.800,63.204 337.822 C 63.202 338.053,62.549 338.863,61.752 339.622 C 58.801 342.431,59.022 338.718,58.800 389.200 C 58.690 414.170,58.720 434.875,58.866 435.211 C 59.013 435.546,59.434 437.616,59.802 439.811 C 60.389 443.310,60.633 443.972,61.787 445.200 C 62.511 445.970,63.213 446.870,63.347 447.200 C 63.481 447.530,63.492 447.170,63.372 446.400 C 63.084 444.554,62.462 443.248,61.219 441.874 L 60.200 440.748 60.069 395.674 C 59.919 344.091,59.985 342.635,62.577 339.554 C 63.103 338.930,63.648 337.894,63.789 337.251 C 63.930 336.609,64.395 335.766,64.823 335.379 C 65.250 334.993,65.600 334.487,65.600 334.257 C 65.600 334.027,66.175 333.245,66.878 332.519 C 68.330 331.022,67.955 330.746,66.312 332.102 M186.619 346.036 C 186.186 349.726,186.551 437.411,187.000 437.312 C 187.220 437.264,187.459 436.724,187.531 436.112 C 187.603 435.501,187.828 434.829,188.031 434.620 C 188.234 434.411,188.400 433.308,188.400 432.169 C 188.400 430.816,188.608 429.925,189.000 429.600 C 189.450 429.227,189.600 428.225,189.600 425.600 C 189.600 422.975,189.450 421.973,189.000 421.600 C 188.475 421.164,188.400 416.533,188.400 384.375 C 188.400 360.321,188.262 347.562,188.000 347.400 C 187.780 347.264,187.597 346.668,187.594 346.076 C 187.581 343.842,186.880 343.813,186.619 346.036 M201.693 346.000 C 201.693 346.770,201.775 347.085,201.876 346.700 C 201.976 346.315,201.976 345.685,201.876 345.300 C 201.775 344.915,201.693 345.230,201.693 346.000 M201.570 359.910 C 201.419 364.999,201.181 367.779,200.870 368.090 C 200.603 368.357,200.400 369.724,200.400 371.256 C 200.400 372.739,200.220 374.064,200.000 374.200 C 199.780 374.336,199.600 375.416,199.600 376.600 C 199.600 377.784,199.780 378.864,200.000 379.000 C 200.220 379.136,200.400 380.461,200.400 381.944 C 200.400 383.567,200.599 384.839,200.900 385.140 C 201.605 385.845,201.604 397.356,200.899 398.061 C 200.625 398.335,200.400 399.514,200.400 400.680 C 200.400 401.846,200.220 402.800,200.000 402.800 C 199.769 402.800,199.600 404.067,199.600 405.800 C 199.600 407.533,199.769 408.800,200.000 408.800 C 200.251 408.800,200.400 411.325,200.400 415.576 C 200.400 419.663,200.241 422.451,200.000 422.600 C 199.200 423.094,199.507 433.010,200.369 434.545 C 200.792 435.299,201.205 436.429,201.285 437.058 C 201.725 440.483,202.033 416.005,201.924 386.200 C 201.856 367.500,201.697 355.669,201.570 359.910 M327.944 421.200 C 327.865 425.710,327.800 431.920,327.800 435.000 C 327.799 443.409,327.770 443.615,326.355 445.124 C 325.115 446.448,325.014 447.385,326.220 446.384 C 328.432 444.547,328.583 443.533,328.707 429.600 C 328.771 422.450,328.658 415.790,328.455 414.800 C 328.172 413.413,328.055 414.883,327.944 421.200 M202.038 443.800 C 201.995 444.821,202.868 447.932,203.048 447.400 C 203.123 447.180,202.933 446.100,202.628 445.000 C 202.322 443.900,202.056 443.360,202.038 443.800 M183.173 449.196 C 182.387 449.968,180.963 451.050,180.007 451.600 C 179.052 452.150,177.354 453.320,176.235 454.200 L 174.200 455.800 129.800 456.063 C 105.380 456.208,84.950 456.342,84.400 456.360 C 79.315 456.530,73.198 455.752,72.126 454.800 C 71.507 454.250,70.568 453.556,70.039 453.258 L 69.078 452.717 69.859 454.058 C 70.682 455.472,71.938 455.985,76.800 456.899 C 80.678 457.628,164.166 457.748,168.800 457.032 C 176.867 455.785,176.867 455.785,178.533 453.918 C 179.375 452.973,180.806 451.840,181.712 451.400 C 182.630 450.954,183.700 450.016,184.128 449.281 C 185.150 447.526,184.894 447.503,183.173 449.196 M203.200 448.365 C 203.200 449.455,206.859 452.318,208.583 452.576 C 210.342 452.840,211.027 453.384,211.961 455.256 C 213.086 457.510,210.367 457.400,264.842 457.400 C 304.563 457.400,315.265 457.295,315.660 456.900 C 315.935 456.625,316.410 456.400,316.716 456.400 C 317.491 456.400,318.771 454.770,318.787 453.763 C 318.797 453.144,319.199 452.807,320.335 452.467 C 321.179 452.214,322.188 451.655,322.578 451.225 C 323.280 450.449,323.273 450.449,321.758 451.221 C 320.918 451.650,319.819 452.000,319.315 452.000 C 318.768 452.000,317.758 452.660,316.810 453.637 C 314.518 455.999,315.447 455.959,262.561 455.986 C 210.227 456.014,213.821 456.186,213.005 453.615 C 212.862 453.165,211.992 452.579,210.881 452.186 C 207.240 450.898,205.795 450.189,204.504 449.059 C 203.787 448.431,203.200 448.119,203.200 448.365 M64.025 449.178 C 63.997 449.819,65.932 452.000,66.529 452.000 C 66.737 452.000,66.419 451.615,65.821 451.145 C 65.223 450.674,64.580 449.909,64.392 449.445 C 64.200 448.971,64.040 448.854,64.025 449.178 " stroke="none" fill="#3c3c44" fill-rule="evenodd"></path></g></svg>